<?xml version="1.0" encoding="UTF-8"?>
<!-- Generator: visioncortex VTracer 0.6.2 -->
<svg version="1.1" xmlns="http://www.w3.org/2000/svg" width="1280" height="721">
<path d="M0 0 C2.10255429 -0.37495883 2.10255429 -0.37495883 4.76542562 -0.37489682 C5.77971066 -0.38215115 6.7939957 -0.38940548 7.83901665 -0.39687964 C8.96396861 -0.3895703 10.08892058 -0.38226095 11.247962 -0.37473011 C13.03553052 -0.3808212 13.03553052 -0.3808212 14.85921153 -0.38703534 C18.19234527 -0.39531627 21.52497437 -0.39001788 24.85806933 -0.3792013 C28.47458095 -0.37073384 32.09105533 -0.37957107 35.70756489 -0.38626546 C42.05430377 -0.39558979 48.40096363 -0.39367776 54.74770164 -0.38453293 C64.18530034 -0.37097171 73.62283796 -0.37448569 83.06044102 -0.38149153 C99.91273095 -0.39344064 116.76498358 -0.38831636 133.61727147 -0.37621326 C148.36526856 -0.36569306 163.11325292 -0.36113571 177.86125374 -0.36250877 C179.32645618 -0.36263482 179.32645618 -0.36263482 180.82125867 -0.36276341 C184.78604017 -0.36311564 188.75082168 -0.36349964 192.71560318 -0.36392899 C229.93881327 -0.36789761 267.16200083 -0.35515951 304.38520447 -0.33440243 C337.48182494 -0.31603325 370.57842381 -0.31021945 403.67504883 -0.31567383 C405.79990764 -0.31602026 407.92476646 -0.31636636 410.04962527 -0.31671212 C411.10009661 -0.31688311 412.15056795 -0.31705411 413.23287175 -0.31723029 C418.52040559 -0.31808378 423.80793944 -0.31890757 429.09547329 -0.31969929 C430.13853997 -0.31985637 431.18160665 -0.32001345 432.25628141 -0.32017529 C459.88113599 -0.32416225 487.50598848 -0.3186939 515.13084179 -0.310188 C518.10212589 -0.30928092 521.07341 -0.30837527 524.0446941 -0.30747276 C526.01591009 -0.30687165 527.98712608 -0.30626303 529.95834207 -0.30564686 C543.72120773 -0.30141947 557.48406931 -0.30084973 571.24693541 -0.30275235 C588.98070794 -0.30519159 606.71445855 -0.30115382 624.44822507 -0.28554235 C633.83465743 -0.2774705 643.22105328 -0.27490642 652.60748784 -0.2801847 C658.86798393 -0.28314945 665.1284476 -0.27889935 671.38893593 -0.26863613 C674.96216745 -0.2629797 678.53532422 -0.26054985 682.10855644 -0.26680271 C685.94781362 -0.27344048 689.78694565 -0.26479308 693.62619686 -0.25447559 C694.74880766 -0.25887208 695.87141846 -0.26326856 697.02804777 -0.26779827 C698.5532306 -0.25990338 698.5532306 -0.25990338 700.10922521 -0.251849 C701.42744816 -0.25131011 701.42744816 -0.25131011 702.77230188 -0.25076034 C705 0 705 0 708 2 C708.37448616 4.10349962 708.37448616 4.10349962 708.37374616 6.76772696 C708.38074426 7.78252445 708.38774237 8.79732193 708.39495254 9.84287086 C708.38735734 10.96839452 708.37976215 12.09391818 708.3719368 13.25354862 C708.37569793 14.44586016 708.37945906 15.6381717 708.38333416 16.86661389 C708.39078036 20.201417 708.38464708 23.53571246 708.37299994 26.87047206 C708.36363509 30.48875826 708.37158584 34.10701142 708.37739825 37.7252993 C708.38517833 44.0751012 708.38173696 50.42482155 708.37107468 56.77461815 C708.35526368 66.21665815 708.35654526 75.65864094 708.36136696 85.10069016 C708.36896835 100.98181389 708.36242388 116.86290291 708.34775543 132.74402046 C708.33324182 148.47572666 708.32447023 164.20741766 708.32357025 179.93913078 C708.32347861 181.4047686 708.32347861 181.4047686 708.32338512 182.90001525 C708.32315561 186.86593923 708.32296843 190.83186321 708.32283698 194.7977872 C708.32162467 230.96668267 708.30590971 267.13555686 708.28125 303.30444336 C708.25795514 337.47827316 708.24378345 371.65209005 708.24023438 405.82592773 C708.2400671 407.40507269 708.2400671 407.40507269 708.23989645 409.01611956 C708.23944761 413.26030508 708.23900563 417.5044906 708.23856402 421.74867612 C708.23834365 423.86357486 708.23812235 425.9784736 708.23790014 428.09337233 C708.23767879 430.20296299 708.23746002 432.31255365 708.23724384 434.42214431 C708.23373213 467.98063631 708.22227091 501.53912587 708.2094375 535.09761544 C708.20571442 544.93322988 708.20245073 554.76884415 708.20018864 564.60445905 C708.19538556 585.29471969 708.18833137 605.98497258 708.17204097 626.67522783 C708.1653739 635.23616826 708.1602412 643.79710237 708.15958023 652.35804558 C708.1590306 659.44956921 708.15521716 666.54108069 708.14680431 673.63259956 C708.14265993 677.20784585 708.14013346 680.78307414 708.14191952 684.35832281 C708.14379256 688.19632574 708.13804317 692.03429428 708.13142776 695.87229252 C708.13319724 697.00015735 708.13496671 698.12802217 708.1367898 699.29006472 C708.13377383 700.30235869 708.13075786 701.31465266 708.1276505 702.35762221 C708.12713526 703.23674947 708.12662002 704.11587673 708.12608917 705.02164421 C708 707 708 707 707 708 C705.45079652 708.09810639 703.89710482 708.12598658 702.34479815 708.12649983 C701.32963734 708.12925958 700.31447654 708.13201932 699.26855329 708.13486269 C697.57194301 708.13177971 697.57194301 708.13177971 695.84105778 708.12863445 C694.64682293 708.13038749 693.45258808 708.13214053 692.2221643 708.13394669 C688.87746307 708.13782401 685.53281616 708.1371649 682.18811708 708.13466892 C678.56065378 708.13304466 674.93319648 708.13716927 671.30573505 708.14057809 C664.93825305 708.14574782 658.57077865 708.14714658 652.20329475 708.14612198 C642.73486764 708.14460208 633.26644899 708.14874758 623.79802352 708.1539966 C605.90691582 708.16368728 588.01581098 708.16648148 570.12470097 708.16705366 C556.31324047 708.16751249 542.5017811 708.1695671 528.69032097 708.17275429 C524.7205316 708.17365177 520.75074224 708.17454159 516.78095287 708.17542917 C515.79416678 708.17565021 514.8073807 708.17587126 513.790692 708.17609901 C486.01960584 708.18225655 458.24852008 708.18619923 430.4774332 708.18575573 C429.42956745 708.18574015 428.3817017 708.18572457 427.30208245 708.18570852 C421.99056886 708.18562541 416.67905527 708.18552637 411.36754168 708.18542381 C410.31257807 708.18540387 409.25761446 708.18538392 408.17068226 708.18536337 C406.03728751 708.18532294 403.90389277 708.18528114 401.77049803 708.18523798 C368.5666395 708.18462501 335.36279116 708.19213443 302.15893555 708.20581055 C264.8905579 708.22115429 227.62218696 708.22977781 190.35380596 708.22884732 C186.38370224 708.22877269 182.41359852 708.22872399 178.4434948 708.22869301 C177.46588875 708.22868135 176.48828271 708.2286697 175.48105224 708.22865769 C159.71431797 708.22862685 143.94759252 708.23502643 128.18086087 708.24362527 C112.34905231 708.25208134 96.51725673 708.25310783 80.68544716 708.24651595 C71.26770163 708.24280661 61.84999539 708.24469367 52.43225398 708.25445829 C46.15213174 708.2604222 39.8720382 708.25920321 33.59191732 708.25198779 C30.00663394 708.24807564 26.42142704 708.24741755 22.83614881 708.25544515 C18.98565536 708.26399168 15.13527931 708.25728526 11.28478336 708.24888897 C10.15605101 708.25385715 9.02731866 708.25882533 7.8643823 708.26394406 C6.33788581 708.25681784 6.33788581 708.25681784 4.78055102 708.24954766 C3.89886031 708.24963588 3.0171696 708.2497241 2.10876099 708.249815 C0 708 0 708 -2 706 C-2.20024514 703.01100451 -2.27355 700.1143187 -2.26069641 697.12391663 C-2.26452196 696.19327454 -2.26834751 695.26263245 -2.27228898 694.30378908 C-2.28265866 691.16609266 -2.27861933 688.02857788 -2.2746582 684.89086914 C-2.27900248 682.6491631 -2.28418467 680.40745855 -2.29014587 678.16575623 C-2.30357765 672.06254545 -2.30410991 665.95939644 -2.30158257 659.85617375 C-2.30051569 654.76888413 -2.30538895 649.68160716 -2.310188 644.59432024 C-2.32193361 631.90999027 -2.32104985 619.22570517 -2.31463119 606.54137563 C-2.30946142 595.51806659 -2.32071732 584.49484591 -2.33972941 573.47155435 C-2.35908756 562.16117146 -2.36707561 550.85084261 -2.36360615 539.54043859 C-2.36178874 533.18717107 -2.364475 526.83398446 -2.37832069 520.48073006 C-2.39084945 514.50784839 -2.38900204 508.53514418 -2.37590981 502.5622654 C-2.37353364 500.36560762 -2.37631562 498.16893755 -2.38453293 495.97229385 C-2.39491439 492.98234241 -2.38696924 489.99299596 -2.3742218 487.00306702 C-2.38159609 486.12603357 -2.38897037 485.24900012 -2.39656812 484.3453899 C-2.34396464 478.51350095 -2.34396464 478.51350095 -0.78907937 476.19223017 C1 475 1 475 6 476 C6.33 549.59 6.66 623.18 7 699 C350.035 699.495 350.035 699.495 700 700 C699.67 471.97 699.34 243.94 699 9 C355.965 8.505 355.965 8.505 6 8 C6 81.59 6 155.18 6 231 C5 232 5 232 2.5625 232.1875 C0 232 0 232 -2 230 C-2.19803966 227.02340549 -2.26914419 224.13971846 -2.25396729 221.16188049 C-2.25708727 220.23532196 -2.26020725 219.30876342 -2.26342177 218.35412735 C-2.27143827 215.23024336 -2.26506393 212.10655166 -2.25878906 208.98266602 C-2.26149732 206.75081264 -2.26505732 204.51896015 -2.26940918 202.28710938 C-2.27855561 196.21075173 -2.27497952 190.13446173 -2.26865101 184.05810285 C-2.26360202 177.71068461 -2.26827944 171.36327233 -2.27142334 165.01585388 C-2.27530011 153.66978353 -2.26906795 142.32374765 -2.25890467 130.97768419 C-2.24997089 120.68554694 -2.25151883 110.3934548 -2.26074219 100.10131836 C-2.2714402 88.15800713 -2.27543176 76.21472333 -2.26951766 64.27140564 C-2.26639399 57.94610411 -2.26599942 51.62083368 -2.27259064 45.29553413 C-2.27835385 39.34894583 -2.274386 33.40244299 -2.26280212 27.45586395 C-2.26014992 25.26888356 -2.26093011 23.08189602 -2.26532745 20.89491844 C-2.27076234 17.91821512 -2.26397377 14.94178866 -2.25396729 11.96510315 C-2.26065945 10.6553894 -2.26065945 10.6553894 -2.26748681 9.31921679 C-2.2283002 3.3424503 -2.2283002 3.3424503 0 0 Z " fill="#F4F5F6" transform="translate(530,9)"/>
<path d="M0 0 C7.35063746 -0.05062952 14.70123011 -0.08570377 22.05200195 -0.10986328 C24.55364665 -0.11993288 27.05527955 -0.13358934 29.55688477 -0.15087891 C33.14862986 -0.17508492 36.7402196 -0.18647346 40.33203125 -0.1953125 C42.01496025 -0.21079636 42.01496025 -0.21079636 43.73188782 -0.22659302 C44.77274033 -0.22674408 45.81359283 -0.22689514 46.88598633 -0.22705078 C47.80309891 -0.231492 48.72021149 -0.23593323 49.66511536 -0.24050903 C52 0 52 0 55 2 C55.29659917 4.67236536 55.39556045 7.11367617 55.36749268 9.78858948 C55.37076152 10.60221968 55.37403036 11.41584988 55.37739825 12.25413555 C55.38471399 14.99586337 55.37048868 17.73706412 55.35644531 20.47875977 C55.35723568 22.43799938 55.3593314 24.39723885 55.36264038 26.35647583 C55.3677881 31.68897341 55.35421213 37.02127903 55.33711338 42.3537457 C55.32211617 47.9226697 55.32325234 53.4915908 55.32244873 59.06053162 C55.31875251 68.41302788 55.30376664 77.76545091 55.28125 87.11791992 C55.25236735 99.13940889 55.24202675 111.16083885 55.2375679 123.18235874 C55.23359373 133.49626922 55.22109096 143.81016677 55.20722103 154.12406802 C55.20311458 157.44984899 55.20019276 160.77562949 55.19742584 164.10141182 C55.19254608 169.31748979 55.18236518 174.53353166 55.16798782 179.74959183 C55.16345065 181.66972592 55.16062283 183.58986488 55.15958023 185.51000404 C55.15784478 188.11950415 55.14998921 190.7289127 55.14044189 193.33839417 C55.14130838 194.10841579 55.14217486 194.87843742 55.1430676 195.67179304 C55.11420726 200.88579274 55.11420726 200.88579274 54 202 C52.28134591 202.0935919 50.55884256 202.11744611 48.83764648 202.11352539 C47.73658066 202.11344986 46.63551483 202.11337433 45.50108337 202.11329651 C44.3031868 202.10813522 43.10529022 202.10297394 41.87109375 202.09765625 C40.65172623 202.0962413 39.4323587 202.09482635 38.17604065 202.09336853 C34.2631693 202.08774967 30.35035419 202.07519396 26.4375 202.0625 C23.79231853 202.05748743 21.14713617 202.0529241 18.50195312 202.04882812 C12.00128274 202.03777411 5.50064539 202.02101764 -1 202 C-1.0233312 175.95778183 -1.04098027 149.91556521 -1.05181217 123.8733387 C-1.05697466 111.7822548 -1.06401646 99.69117739 -1.07543945 87.60009766 C-1.08538773 77.06498774 -1.09185377 66.52988251 -1.09408849 55.99476802 C-1.09539535 50.41338767 -1.09847967 44.83202075 -1.10573006 39.25064468 C-1.11249253 34.00259278 -1.11461649 28.7545599 -1.11310768 23.50650406 C-1.11338391 21.57549944 -1.11538769 19.64449421 -1.11920547 17.71349335 C-1.12414624 15.08673263 -1.12299684 12.46004471 -1.12025452 9.83328247 C-1.12462378 8.67473651 -1.12462378 8.67473651 -1.12908131 7.49278557 C-1.11412121 2.22824242 -1.11412121 2.22824242 0 0 Z " fill="#F6F7F8" transform="translate(768,262)"/>
<path d="M0 0 C1.55182228 -0.00472824 1.55182228 -0.00472824 3.13499451 -0.009552 C4.8239962 -0.00651566 4.8239962 -0.00651566 6.54711914 -0.00341797 C7.69515518 -0.00437469 8.84319122 -0.00533142 10.02601624 -0.00631714 C12.45972752 -0.00699921 14.89344062 -0.00514305 17.32714844 -0.00097656 C21.06262282 0.00436642 24.79797668 -0.00091816 28.53344727 -0.00732422 C30.89217149 -0.00666335 33.25089564 -0.005382 35.60961914 -0.00341797 C36.73359604 -0.0054422 37.85757294 -0.00746643 39.01560974 -0.009552 C40.57216026 -0.00482376 40.57216026 -0.00482376 42.16015625 0 C43.07647324 0.00079559 43.99279022 0.00159119 44.93687439 0.00241089 C47.14477539 0.12939453 47.14477539 0.12939453 49.14477539 1.12939453 C49.14477539 67.45939453 49.14477539 133.78939453 49.14477539 202.12939453 C30.99477539 202.12939453 12.84477539 202.12939453 -5.85522461 202.12939453 C-5.8777689 175.93951937 -5.89620218 149.74965202 -5.90703678 123.55976963 C-5.91220043 111.40027584 -5.91924443 99.24078849 -5.93066406 87.08129883 C-5.9406088 76.48723485 -5.94707753 65.89317553 -5.9493131 55.29910702 C-5.95062057 49.6859005 -5.95370867 44.07270733 -5.96095467 38.45950508 C-5.96771157 33.18272917 -5.96984225 27.90597218 -5.96833229 22.62919235 C-5.96860877 20.6864798 -5.97061584 18.74376665 -5.97443008 16.80105782 C-5.97936219 14.16081027 -5.9782247 11.52063537 -5.97547913 8.88038635 C-5.97839197 8.10121859 -5.98130481 7.32205082 -5.98430592 6.51927191 C-5.96745854 0.57795811 -5.9016251 0.00512855 0 0 Z " fill="#7E7E80" transform="translate(907.855224609375,261.87060546875)"/>
<path d="M0 0 C1.55182228 -0.00472824 1.55182228 -0.00472824 3.13499451 -0.009552 C4.8239962 -0.00651566 4.8239962 -0.00651566 6.54711914 -0.00341797 C7.69515518 -0.00437469 8.84319122 -0.00533142 10.02601624 -0.00631714 C12.45972752 -0.00699921 14.89344062 -0.00514305 17.32714844 -0.00097656 C21.06262282 0.00436642 24.79797668 -0.00091816 28.53344727 -0.00732422 C30.89217149 -0.00666335 33.25089564 -0.005382 35.60961914 -0.00341797 C36.73359604 -0.0054422 37.85757294 -0.00746643 39.01560974 -0.009552 C40.57216026 -0.00482376 40.57216026 -0.00482376 42.16015625 0 C43.07647324 0.00079559 43.99279022 0.00159119 44.93687439 0.00241089 C47.14477539 0.12939453 47.14477539 0.12939453 49.14477539 1.12939453 C49.14477539 67.45939453 49.14477539 133.78939453 49.14477539 202.12939453 C31.32477539 202.12939453 13.50477539 202.12939453 -4.85522461 202.12939453 C-6.07920334 198.45745833 -5.99341439 195.08137114 -5.98220825 191.2585144 C-5.98376824 190.44811333 -5.98532823 189.63771225 -5.9869355 188.80275357 C-5.99093487 186.07811948 -5.98775996 183.35354078 -5.98461914 180.62890625 C-5.98597363 178.67937182 -5.98775383 176.72983764 -5.9899292 174.78030396 C-5.99449725 169.47892428 -5.9927167 164.17756401 -5.98955011 158.87618399 C-5.987024 153.33795716 -5.98936469 147.79973202 -5.99093628 142.26150513 C-5.99275693 132.96209412 -5.99035407 123.66269105 -5.9855957 114.36328125 C-5.98015009 103.59608636 -5.98191833 92.82891039 -5.98742211 82.06171596 C-5.99195239 72.83114137 -5.9926043 63.60057249 -5.98998344 54.36999714 C-5.98842061 48.85073545 -5.98822714 43.33148266 -5.99151993 37.81222153 C-5.99439752 32.62650791 -5.99242504 27.44081883 -5.98662567 22.25510788 C-5.9852976 20.34625794 -5.98569297 18.43740596 -5.98788834 16.52855682 C-5.99059794 13.9344453 -5.98722111 11.34041372 -5.98220825 8.74630737 C-5.98443897 7.98085881 -5.9866697 7.21541025 -5.98896801 6.42676628 C-5.96667717 0.52994821 -5.84840198 0.00508229 0 0 Z " fill="#BFC0C2" transform="translate(840.855224609375,261.87060546875)"/>
<path d="M0 0 C3.25009047 0.05793388 3.90810916 0.12665259 6.4375 2.375 C12.1875 12.23214286 12.1875 12.23214286 12.1875 15.375 C13.1775 15.375 14.1675 15.375 15.1875 15.375 C15.27386719 16.03886719 15.36023438 16.70273437 15.44921875 17.38671875 C16.41840893 21.30963137 18.14726367 24.61316476 20 28.1875 C20.69401042 29.54817708 21.38802083 30.90885417 22.08203125 32.26953125 C22.42572754 32.93807129 22.76942383 33.60661133 23.12353516 34.29541016 C24.83622909 37.64298403 26.51039285 41.00947935 28.1875 44.375 C28.8475 44.375 29.5075 44.375 30.1875 44.375 C30.1875 45.035 30.1875 45.695 30.1875 46.375 C33.56805954 43.3383502 35.37128573 40.40465772 37.3125 36.3125 C37.91471216 35.06806269 38.519001 33.8246289 39.125 32.58203125 C39.45113281 31.91123535 39.77726562 31.24043945 40.11328125 30.54931641 C42.1143541 26.49896304 44.21320957 22.50008399 46.3125 18.5 C46.72000488 17.71616943 47.12750977 16.93233887 47.54736328 16.12475586 C54.30734804 3.25515196 54.30734804 3.25515196 57.1875 0.375 C63.43847311 -0.08803505 63.43847311 -0.08803505 65.89178467 1.42855835 C67.85612567 4.37941881 67.58854291 7.34318995 67.54394531 10.76806641 C67.54598969 11.51792313 67.54803406 12.26777985 67.55014038 13.0403595 C67.55314907 15.51934171 67.53467188 17.99765934 67.515625 20.4765625 C67.51256792 22.19623652 67.51069141 23.91591302 67.50994873 25.6355896 C67.50534542 29.2386015 67.49091642 32.84138991 67.46875 36.44433594 C67.44042512 41.0728048 67.42953436 45.70109786 67.4250679 50.32964516 C67.42092056 53.87942274 67.41110954 57.42916446 67.39919281 60.9789238 C67.39347907 62.68623948 67.38872404 64.39355865 67.38492584 66.10087967 C67.37808543 68.4808897 67.36446488 70.86075763 67.34863281 73.24072266 C67.34751495 73.95242111 67.34639709 74.66411957 67.34524536 75.39738464 C67.30218945 80.26031055 67.30218945 80.26031055 66.1875 81.375 C58.72885338 81.73590226 58.72885338 81.73590226 55.1875 79.375 C54.78877258 77.19833374 54.78877258 77.19833374 54.75512695 74.46630859 C54.73533279 73.44540131 54.71553864 72.42449402 54.69514465 71.37265015 C54.68875473 70.26740997 54.68236481 69.1621698 54.67578125 68.0234375 C54.65783005 66.8942691 54.63987885 65.76510071 54.62138367 64.60171509 C54.56707112 60.98451507 54.53331734 57.36744854 54.5 53.75 C54.46684548 51.30206467 54.4323576 48.854147 54.39648438 46.40625 C54.31133274 40.39595305 54.24307192 34.38563925 54.1875 28.375 C52.2815672 30.88204795 50.59065251 33.30252207 49.13671875 36.09765625 C48.7711084 36.79624756 48.40549805 37.49483887 48.02880859 38.21459961 C47.64805176 38.94815674 47.26729492 39.68171387 46.875 40.4375 C46.47619629 41.1910376 46.07739258 41.9445752 45.66650391 42.72094727 C43.89003749 46.07988165 42.15592567 49.44079825 40.51171875 52.8671875 C36.6070867 60.80274699 36.6070867 60.80274699 32.625 62.25 C28.56007837 62.39781533 27.18194355 62.11990659 24.1875 59.375 C22.92095354 57.07588756 22.07924826 54.8625083 21.1875 52.375 C20.8575 52.375 20.5275 52.375 20.1875 52.375 C20.06375 51.570625 19.94 50.76625 19.8125 49.9375 C19.60625 49.091875 19.4 48.24625 19.1875 47.375 C18.5275 47.045 17.8675 46.715 17.1875 46.375 C16.85416667 44.375 16.52083333 42.375 16.1875 40.375 C15.5275 40.045 14.8675 39.715 14.1875 39.375 C13.22265625 37.703125 13.22265625 37.703125 12.25 35.625 C10.73713867 32.41552901 9.02624828 29.40957757 7.1875 26.375 C7.17941315 27.03454681 7.17132629 27.69409363 7.16299438 28.37362671 C7.07714428 35.21901207 6.97764997 42.06410129 6.87011719 48.90917969 C6.8317602 51.46609537 6.79691938 54.02306625 6.765625 56.58007812 C6.72012024 60.24889909 6.6621019 63.91733773 6.6015625 67.5859375 C6.58423569 69.3094191 6.58423569 69.3094191 6.56655884 71.06771851 C6.54668915 72.1286673 6.52681946 73.18961609 6.50634766 74.28271484 C6.49302399 75.21981293 6.47970032 76.15691101 6.4659729 77.12240601 C6.1875 79.375 6.1875 79.375 4.1875 81.375 C0.6875 81.6875 0.6875 81.6875 -2.8125 81.375 C-5.22139649 77.76165526 -5.08854786 75.15364929 -5.05541992 70.98193359 C-5.05731827 70.23207687 -5.05921661 69.48222015 -5.06117249 68.7096405 C-5.06487771 66.23079987 -5.05418143 63.75225209 -5.04296875 61.2734375 C-5.0417769 59.55376215 -5.0413238 57.83408614 -5.0415802 56.1144104 C-5.04001588 52.51145347 -5.03172878 48.90859598 -5.01831055 45.30566406 C-5.00129526 40.67720051 -4.99749695 36.04884601 -4.99825573 31.42035484 C-4.99798444 27.87058462 -4.99251034 24.32083845 -4.98525429 20.7710762 C-4.98206289 19.06375943 -4.98009912 17.35643993 -4.97936058 15.64912033 C-4.97720343 13.26912493 -4.96847363 10.88924758 -4.95776367 8.50927734 C-4.95821686 7.79757889 -4.95867004 7.08588043 -4.95913696 6.35261536 C-4.92032697 0.48396659 -4.92032697 0.48396659 0 0 Z " fill="#F2F3F4" transform="translate(181.8125,289.625)"/>
<path d="M0 0 C5.42601201 -0.04964329 10.85189015 -0.08583447 16.27807617 -0.10986328 C18.12184962 -0.11988642 19.96560731 -0.13350852 21.80932617 -0.15087891 C24.4679759 -0.17528995 27.12641443 -0.18652017 29.78515625 -0.1953125 C30.60210464 -0.20563507 31.41905304 -0.21595764 32.26075745 -0.22659302 C37.97494867 -0.22769928 43.5935226 -0.05258366 48.125 3.8125 C49.053125 4.8953125 49.053125 4.8953125 50 6 C50.845625 6.763125 51.69125 7.52625 52.5625 8.3125 C58.32475239 14.66575263 58.34325863 20.27484369 58.3984375 28.59765625 C57.72522937 34.34632565 55.42714767 38.10129287 51.0625 41.8125 C50.05896484 42.68841797 50.05896484 42.68841797 49.03515625 43.58203125 C46.97770437 45.01553419 45.45088891 45.57781108 43 46 C44.05004579 50.28095589 44.75347525 53.02401898 48 56 C48.25394531 56.67546875 48.50789062 57.3509375 48.76953125 58.046875 C50.82501451 62.98003482 53.8058376 67.41134875 56.63085938 71.9375 C57.07623047 72.67226563 57.52160156 73.40703125 57.98046875 74.1640625 C58.59764771 75.16107178 58.59764771 75.16107178 59.22729492 76.17822266 C60 78 60 78 59 81 C51.7735697 81.61240935 51.7735697 81.61240935 48 78.625 C46 76 46 76 46 74 C45.01 73.505 45.01 73.505 44 73 C42.96942541 71.23740168 41.99839872 69.43964332 41.0625 67.625 C39.08672582 63.70805044 39.08672582 63.70805044 36.34375 60.34375 C34.27030055 58.27030055 34.42936446 55.82153786 34 53 C33.01 52.505 33.01 52.505 32 52 C31.67 51.34 31.34 50.68 31 50 C24.07 49.67 17.14 49.34 10 49 C10.01740234 52.33931641 10.01740234 52.33931641 10.03515625 55.74609375 C10.04294722 57.89396014 10.04902375 60.04182497 10.05493164 62.18969727 C10.05997121 63.68644918 10.06680287 65.18319616 10.07543945 66.67993164 C10.08752159 68.82699807 10.09323191 70.97399962 10.09765625 73.12109375 C10.10289307 74.4145874 10.10812988 75.70808105 10.11352539 77.04077148 C10 80 10 80 9 81 C1.54135338 81.36090226 1.54135338 81.36090226 -2 79 C-2.3742218 75.93911743 -2.3742218 75.93911743 -2.37231445 71.95166016 C-2.37596512 71.22627548 -2.37961578 70.50089081 -2.38337708 69.75352478 C-2.39150243 67.34846799 -2.37785397 64.94408095 -2.36328125 62.5390625 C-2.36276277 60.86998495 -2.36328001 59.20090678 -2.36479187 57.53182983 C-2.36470205 54.02959097 -2.35425513 50.52758183 -2.33618164 47.02539062 C-2.31352913 42.53724802 -2.31294298 38.0494423 -2.31969929 33.56125832 C-2.32304264 30.11256928 -2.3164017 26.66395693 -2.30657005 23.21528244 C-2.30272144 21.56068702 -2.30156844 19.90608305 -2.3031559 18.25148392 C-2.3035271 15.93653405 -2.29089005 13.62201414 -2.2746582 11.30712891 C-2.27005081 9.98967682 -2.26544342 8.67222473 -2.26069641 7.31484985 C-2.01986091 4.25253873 -1.62746456 2.55554208 0 0 Z M10 10 C10 19.24 10 28.48 10 38 C14.49625 38.0825 18.9925 38.165 23.625 38.25 C25.73575928 38.30462402 25.73575928 38.30462402 27.88916016 38.36035156 C35.13030277 38.64051818 35.13030277 38.64051818 41.7734375 36.234375 C44.73323673 33.26419051 45.8428556 31.55064548 46.265625 27.37890625 C46.25789062 25.98478516 46.25789062 25.98478516 46.25 24.5625 C46.25515625 23.63566406 46.2603125 22.70882813 46.265625 21.75390625 C45.8839924 17.79727419 45.04286679 14.9419442 42.0625 12.25 C38.25095059 9.93997005 35.16418181 9.8818583 30.80078125 9.90234375 C29.71192627 9.90484131 28.62307129 9.90733887 27.5012207 9.90991211 C25.42780396 9.92356812 25.42780396 9.92356812 23.3125 9.9375 C18.919375 9.958125 14.52625 9.97875 10 10 Z " fill="#ECEDEE" transform="translate(619,290)"/>
<path d="M0 0 C2.08055115 -0.38095093 2.08055115 -0.38095093 4.67749023 -0.38818359 C6.1342643 -0.40236832 6.1342643 -0.40236832 7.62046814 -0.4168396 C9.19859032 -0.40773056 9.19859032 -0.40773056 10.80859375 -0.3984375 C11.88625504 -0.40130768 12.96391632 -0.40417786 14.07423401 -0.40713501 C16.3565422 -0.40917928 18.63886776 -0.40362417 20.92114258 -0.39111328 C24.41983174 -0.37508096 27.91736285 -0.39094236 31.41601562 -0.41015625 C33.63021089 -0.40817358 35.84440544 -0.40432941 38.05859375 -0.3984375 C39.10865097 -0.40451019 40.15870819 -0.41058289 41.24058533 -0.4168396 C42.2149202 -0.40738312 43.18925507 -0.39792664 44.19311523 -0.38818359 C45.05090073 -0.38579681 45.90868622 -0.38341003 46.79246521 -0.38095093 C49 0 49 0 50.8629303 1.08676147 C52 3 52 3 51 10 C37.47 10 23.94 10 10 10 C10 17.92 10 25.84 10 34 C12.56394531 34.04898438 15.12789062 34.09796875 17.76953125 34.1484375 C20.25176854 34.20244219 22.73390903 34.25975165 25.21606445 34.31738281 C26.94157708 34.35567345 28.66716956 34.39052621 30.39282227 34.421875 C32.87284895 34.46752404 35.35232591 34.52551781 37.83203125 34.5859375 C38.60400345 34.59748871 39.37597565 34.60903992 40.17134094 34.62094116 C43.95246674 34.72521273 45.78018835 34.8534589 49 37 C49.25 40.5625 49.25 40.5625 49 44 C48 45 48 45 44.39819336 45.11352539 C42.79540144 45.11336625 41.1926044 45.10767063 39.58984375 45.09765625 C38.74780899 45.0962413 37.90577423 45.09482635 37.03822327 45.09336853 C34.33794665 45.08775263 31.63775172 45.07519748 28.9375 45.0625 C27.11132932 45.05748705 25.28515734 45.05292379 23.45898438 45.04882812 C18.97259915 45.03862716 14.48639145 45.01905499 10 45 C10.33 53.25 10.66 61.5 11 70 C31.295 70.495 31.295 70.495 52 71 C52.495 75.455 52.495 75.455 53 80 C51.36438421 81.63561579 49.50813017 81.13565392 47.25244141 81.14526367 C46.24114166 81.15164352 45.22984192 81.15802338 44.18789673 81.16459656 C42.53641129 81.16626579 42.53641129 81.16626579 40.8515625 81.16796875 C39.16636002 81.17296135 39.16636002 81.17296135 37.44711304 81.17805481 C35.0646811 81.18312936 32.68224202 81.18546297 30.29980469 81.18530273 C26.6476675 81.18748645 22.99583355 81.20562919 19.34375 81.22460938 C17.0338552 81.22754369 14.72395897 81.22952823 12.4140625 81.23046875 C10.76864975 81.24124702 10.76864975 81.24124702 9.08999634 81.25224304 C7.56359024 81.2476281 7.56359024 81.2476281 6.00634766 81.24291992 C4.66185043 81.24505745 4.66185043 81.24505745 3.29019165 81.24723816 C1 81 1 81 -2 79 C-2.29738278 76.53209273 -2.39933488 74.3140673 -2.37231445 71.84399414 C-2.37779045 70.73887733 -2.37779045 70.73887733 -2.38337708 69.61143494 C-2.39150176 67.16910959 -2.37785581 64.72744382 -2.36328125 62.28515625 C-2.36276282 60.59126282 -2.36327987 58.89736878 -2.36479187 57.20347595 C-2.36470206 53.64996379 -2.3542554 50.09667808 -2.33618164 46.54321289 C-2.31351137 41.98547113 -2.31294626 37.42806095 -2.31969929 32.87027836 C-2.32303937 29.37101794 -2.31640815 25.87183326 -2.30657005 22.3725872 C-2.30271715 20.69204543 -2.30157021 19.01149523 -2.3031559 17.33094978 C-2.30352633 14.98226984 -2.29091232 12.63401635 -2.2746582 10.28540039 C-2.27713562 9.58867218 -2.27961304 8.89194397 -2.28216553 8.17410278 C-2.2421268 4.5532301 -2.06971828 3.10457742 0 0 Z " fill="#F1F2F3" transform="translate(549,290)"/>
<path d="M0 0 C6.92338952 -0.05063836 13.84673141 -0.08570749 20.77026367 -0.10986328 C23.12640162 -0.11993155 25.48252704 -0.13358706 27.83862305 -0.15087891 C31.22187386 -0.17509076 34.60495972 -0.18647478 37.98828125 -0.1953125 C39.57277824 -0.21079636 39.57277824 -0.21079636 41.18928528 -0.22659302 C42.17007553 -0.22674408 43.15086578 -0.22689514 44.16137695 -0.22705078 C45.45710381 -0.23371262 45.45710381 -0.23371262 46.77900696 -0.24050903 C49 0 49 0 52 2 C52.25 5.5625 52.25 5.5625 52 9 C49.8994189 11.1005811 45.31283414 10.23454174 42.40625 10.28125 C41.1134613 10.30886414 41.1134613 10.30886414 39.79455566 10.33703613 C36.09086962 10.4159949 32.38699374 10.48354856 28.68310547 10.55224609 C25.98655873 10.60385691 23.29017443 10.66115402 20.59375 10.71875 C19.74897095 10.73232544 18.90419189 10.74590088 18.03381348 10.7598877 C14.20554853 10.47373357 14.20554853 10.47373357 11 12 C10.84285346 13.63256758 10.74914586 15.27135338 10.68359375 16.91015625 C10.64548584 17.800979 10.60737793 18.69180176 10.56811523 19.60961914 C10.52501221 20.74906982 10.48190918 21.88852051 10.4375 23.0625 C10.293125 26.671875 10.14875 30.28125 10 34 C29.305 34.495 29.305 34.495 49 35 C49.495 39.455 49.495 39.455 50 44 C49 45 49 45 45.39819336 45.11352539 C43.79540144 45.11336625 42.1926044 45.10767063 40.58984375 45.09765625 C39.74780899 45.0962413 38.90577423 45.09482635 38.03822327 45.09336853 C35.33794665 45.08775263 32.63775172 45.07519748 29.9375 45.0625 C28.11132932 45.05748705 26.28515734 45.05292379 24.45898438 45.04882812 C19.97259915 45.03862716 15.48639145 45.01905499 11 45 C11 53.58 11 62.16 11 71 C24.86 71 38.72 71 53 71 C53 71.99 53 72.98 53 74 C53.020625 75.03125 53.04125 76.0625 53.0625 77.125 C53 80 53 80 52 81 C50.34261557 81.09346915 48.68125356 81.11744977 47.02124023 81.11352539 C45.96021591 81.11344986 44.89919159 81.11337433 43.80601501 81.11329651 C42.07479149 81.10555458 42.07479149 81.10555458 40.30859375 81.09765625 C38.5461306 81.09553383 38.5461306 81.09553383 36.74806213 81.09336853 C32.97784936 81.08774992 29.20769496 81.07519426 25.4375 81.0625 C22.88867273 81.0574874 20.33984453 81.05292408 17.79101562 81.04882812 C11.52732367 81.03777444 5.26366601 81.02101821 -1 81 C-1.02313695 70.73422536 -1.04092201 60.46845689 -1.05181217 50.20266151 C-1.05703803 45.4362051 -1.06413031 40.66976648 -1.07543945 35.90332031 C-1.08627885 31.3062561 -1.09227908 26.70920903 -1.09487724 22.11213303 C-1.09672958 20.35539861 -1.10034657 18.59866516 -1.10573006 16.84193802 C-1.11295443 14.38760576 -1.11399035 11.93334503 -1.11352539 9.47900391 C-1.11712067 8.74748611 -1.12071594 8.01596832 -1.12442017 7.26228333 C-1.11405216 2.22810432 -1.11405216 2.22810432 0 0 Z " fill="#F8F9FA" transform="translate(330,290)"/>
<path d="M0 0 C5.56842771 -0.04963288 11.13672511 -0.08582963 16.70532227 -0.10986328 C18.59759771 -0.11988815 20.48985778 -0.13351155 22.38208008 -0.15087891 C25.1102275 -0.17528222 27.83816915 -0.18651845 30.56640625 -0.1953125 C31.40522842 -0.20563507 32.2440506 -0.21595764 33.10829163 -0.22659302 C38.11557565 -0.22753817 42.29021562 0.23707012 47 2 C47.495 2.99 47.495 2.99 48 4 C48.92232422 4.42152344 48.92232422 4.42152344 49.86328125 4.8515625 C52.53194052 6.28590588 53.55152147 7.84322861 55.1875 10.375 C55.95126953 11.53128906 55.95126953 11.53128906 56.73046875 12.7109375 C59.13631826 17.04886924 59.18638395 20.94475591 59.25 25.875 C59.27578125 27.06867188 59.3015625 28.26234375 59.328125 29.4921875 C58.78540813 35.29408931 56.0272126 39.86394382 52 44 C40.13736765 52.12393542 24.64516708 50.23473226 11 50 C11.00523682 50.86802246 11.01047363 51.73604492 11.01586914 52.63037109 C11.03289862 55.84700273 11.04544408 59.06361141 11.05493164 62.28027344 C11.0599643 63.67318477 11.06679098 65.0660908 11.07543945 66.45898438 C11.08755152 68.45961246 11.09270412 70.46027888 11.09765625 72.4609375 C11.10289307 73.66540527 11.10812988 74.86987305 11.11352539 76.11083984 C11 79 11 79 10 81 C8.54207116 81.05399736 7.08357288 81.09279177 5.625 81.125 C4.81289063 81.14820313 4.00078125 81.17140625 3.1640625 81.1953125 C1 81 1 81 -1 79 C-1.19296679 76.5412485 -1.26239399 74.1956617 -1.24291992 71.73632812 C-1.24481827 70.98822372 -1.24671661 70.24011932 -1.24867249 69.46934509 C-1.25238524 66.98987436 -1.24166901 64.51069482 -1.23046875 62.03125 C-1.2292771 60.31254104 -1.22882376 58.59383142 -1.2290802 56.87512207 C-1.22751446 53.27038505 -1.21921803 49.66574722 -1.20581055 46.06103516 C-1.18882058 41.43376238 -1.18499616 36.80659871 -1.18575573 32.1792984 C-1.18548416 28.62948561 -1.18000512 25.0796968 -1.17275429 21.52989197 C-1.16956568 19.82340171 -1.16759977 18.11690873 -1.16686058 16.41041565 C-1.16469905 14.02812036 -1.15595887 11.64594213 -1.14526367 9.26367188 C-1.14571686 8.55399765 -1.14617004 7.84432343 -1.14663696 7.11314392 C-1.11447792 2.22895584 -1.11447792 2.22895584 0 0 Z M11 10 C11.11798252 14.11193736 11.24221059 18.22363288 11.37231445 22.33520508 C11.41571434 23.73489199 11.45738564 25.13463359 11.49731445 26.53442383 C11.55489445 28.54261495 11.61914 30.55061149 11.68359375 32.55859375 C11.72025146 33.76829834 11.75690918 34.97800293 11.79467773 36.22436523 C11.68938266 38.90705456 11.68938266 38.90705456 13 40 C16.32463653 40.28218366 19.66483745 40.2319477 23 40.25 C23.92167969 40.270625 24.84335937 40.29125 25.79296875 40.3125 C33.15118862 40.35401323 39.88592392 39.79787759 45.5390625 34.71875 C47.31715571 31.40978509 47.47115024 29.24111854 47.375 25.5 C47.36210938 24.3965625 47.34921875 23.293125 47.3359375 22.15625 C47.00242847 19.02281634 46.49507785 16.76940594 45 14 C44.01 13.67 43.02 13.34 42 13 C41.34 12.34 40.68 11.68 40 11 C36.76248322 9.92082774 34.42248229 9.88574399 31.01953125 9.90234375 C29.27446289 9.90717773 29.27446289 9.90717773 27.49414062 9.91210938 C25.67172852 9.92467773 25.67172852 9.92467773 23.8125 9.9375 C21.97268555 9.94426758 21.97268555 9.94426758 20.09570312 9.95117188 C17.06375332 9.96296935 14.03190094 9.97943079 11 10 Z M10 13 C10 21.58 10 30.16 10 39 C10.33 39 10.66 39 11 39 C11 30.42 11 21.84 11 13 C10.67 13 10.34 13 10 13 Z " fill="#F2F3F4" transform="translate(474,290)"/>
<path d="M0 0 C1.51400391 0.01740234 1.51400391 0.01740234 3.05859375 0.03515625 C4.07050781 0.04417969 5.08242188 0.05320312 6.125 0.0625 C7.29869141 0.07990234 7.29869141 0.07990234 8.49609375 0.09765625 C8.76292969 0.82984375 9.02976562 1.56203125 9.3046875 2.31640625 C10.48075228 5.06184273 11.81062208 7.18438095 13.55859375 9.59765625 C15.69951241 12.56097373 17.79573045 15.53257627 19.78125 18.6015625 C20.16982178 19.19195312 20.55839355 19.78234375 20.95874023 20.390625 C22.0756887 22.09103301 23.18068616 23.79927304 24.28515625 25.5078125 C26.26921343 28.29608195 26.26921343 28.29608195 29.26953125 28.96875 C30.00429688 29.01128906 30.7390625 29.05382812 31.49609375 29.09765625 C31.63724609 28.25847656 31.63724609 28.25847656 31.78125 27.40234375 C32.99645087 23.48448303 35.6652083 20.57746277 38.1171875 17.3359375 C39.84183198 15.0390475 41.42520261 12.6877419 42.96875 10.265625 C43.38906494 9.62544434 43.80937988 8.98526367 44.24243164 8.32568359 C45.06400898 7.07035822 45.86497637 5.80124458 46.64233398 4.51806641 C48.26474139 2.09107806 49.59404465 0.30248931 52.51953125 -0.36181641 C54.68359375 -0.421875 54.68359375 -0.421875 58.49609375 0.09765625 C59.48609375 1.08765625 59.48609375 1.08765625 60.49609375 2.09765625 C60.29716903 6.80554119 57.72972687 9.97077533 54.99609375 13.59765625 C54.08758839 14.83393545 53.18005902 16.07093238 52.2734375 17.30859375 C51.58096924 18.24783691 51.58096924 18.24783691 50.87451172 19.20605469 C48.71267669 22.17273868 46.63467353 25.19562046 44.55859375 28.22265625 C40.63027237 33.94046704 40.63027237 33.94046704 38.7421875 36.15234375 C37.12162602 38.6822485 37.23595224 40.12722257 37.49609375 43.09765625 C38.45809227 45.10509819 38.45809227 45.10509819 39.91796875 46.92578125 C40.44374512 47.63532959 40.96952148 48.34487793 41.51123047 49.07592773 C42.08373535 49.82559814 42.65624023 50.57526855 43.24609375 51.34765625 C44.4316245 52.94744635 45.61650367 54.54771949 46.80078125 56.1484375 C47.41018555 56.96393066 48.01958984 57.77942383 48.64746094 58.61962891 C51.59140207 62.56587857 54.49341667 66.54040621 57.37109375 70.53515625 C57.90057617 71.25026367 58.43005859 71.96537109 58.97558594 72.70214844 C60.22937431 74.44563193 61.37414435 76.26655016 62.49609375 78.09765625 C62.00109375 79.58265625 62.00109375 79.58265625 61.49609375 81.09765625 C53.35224224 81.72410637 53.35224224 81.72410637 49.93359375 79.22265625 C48.49609375 77.09765625 48.49609375 77.09765625 48.49609375 75.09765625 C47.83609375 75.09765625 47.17609375 75.09765625 46.49609375 75.09765625 C45.13527566 73.2508317 43.85677427 71.3429471 42.62109375 69.41015625 C39.56307718 64.6487198 36.50919462 60.11075712 32.49609375 56.09765625 C32.00109375 55.25203125 31.50609375 54.40640625 30.99609375 53.53515625 C29.72742538 50.99358754 29.72742538 50.99358754 27.49609375 50.09765625 C27.26148438 50.62230469 27.026875 51.14695312 26.78515625 51.6875 C25.08108505 54.87359676 22.98854663 57.74189224 20.87109375 60.66015625 C20.42958984 61.2727832 19.98808594 61.88541016 19.53320312 62.51660156 C18.62861548 63.77065939 17.72269104 65.02375404 16.81542969 66.27587891 C15.58271579 67.97804602 14.35504525 69.68371867 13.12890625 71.390625 C7.76149659 78.83225341 7.76149659 78.83225341 5.49609375 81.09765625 C2.89453125 81.29296875 2.89453125 81.29296875 -0.12890625 81.22265625 C-1.13179688 81.20460938 -2.1346875 81.1865625 -3.16796875 81.16796875 C-3.93882812 81.14476562 -4.7096875 81.1215625 -5.50390625 81.09765625 C-4.99330196 76.49370761 -2.96563707 73.51864698 -0.25390625 69.91015625 C0.17849365 69.3164624 0.61089355 68.72276855 1.05639648 68.11108398 C3.08943284 65.32401236 5.1492346 62.5580454 7.22509766 59.80273438 C8.42111137 58.21500741 9.61202165 56.62342351 10.79785156 55.02807617 C11.95069932 53.47767817 13.11504621 51.9357492 14.29199219 50.40356445 C17.52457535 46.04407503 19.59060389 42.73451105 19.49609375 37.09765625 C18.42395509 34.53569253 18.42395509 34.53569253 16.55859375 32.34765625 C15.91664063 31.5071875 15.2746875 30.66671875 14.61328125 29.80078125 C13.91460937 28.90875 13.2159375 28.01671875 12.49609375 27.09765625 C11.05327094 25.10149279 9.61568399 23.10153344 8.18359375 21.09765625 C6.3699721 18.58922866 4.68406771 16.28563021 2.49609375 14.09765625 C1.60584934 12.66106247 0.75540556 11.19946434 -0.06640625 9.72265625 C-0.50082031 8.95179688 -0.93523437 8.1809375 -1.3828125 7.38671875 C-2.42433689 5.26012192 -3.12856054 3.43199806 -3.50390625 1.09765625 C-2.50390625 0.09765625 -2.50390625 0.09765625 0 0 Z " fill="#F4F5F6" transform="translate(397.50390625,289.90234375)"/>
<path d="M0 0 C1.13134872 -0.00953201 2.26269745 -0.01906403 3.42832947 -0.02888489 C4.65540115 -0.02797348 5.88247284 -0.02706207 7.14672852 -0.02612305 C8.40195816 -0.03040817 9.65718781 -0.0346933 10.95045471 -0.03910828 C13.60952683 -0.04486078 16.26821194 -0.04627639 18.92724609 -0.04101562 C22.33495313 -0.03522228 25.74211642 -0.05214571 29.14973354 -0.0753603 C32.39872799 -0.09363528 35.6476919 -0.08991239 38.89672852 -0.08862305 C40.7342997 -0.10243767 40.7342997 -0.10243767 42.60899353 -0.11653137 C43.74349442 -0.11030258 44.8779953 -0.10407379 46.046875 -0.09765625 C47.04677963 -0.09828568 48.04668427 -0.0989151 49.07688904 -0.0995636 C51.58813477 0.2746582 51.58813477 0.2746582 53.4500885 1.57136536 C54.58813477 3.2746582 54.58813477 3.2746582 54.33813477 6.8996582 C53.58813477 10.2746582 53.58813477 10.2746582 52.58813477 11.2746582 C50.88041119 11.36179652 49.16914828 11.38165828 47.45922852 11.37231445 C45.90751953 11.36748047 45.90751953 11.36748047 44.32446289 11.36254883 C43.23584961 11.35416992 42.14723633 11.34579102 41.02563477 11.3371582 C39.38691406 11.33039063 39.38691406 11.33039063 37.71508789 11.32348633 C35.00604981 11.31165647 32.29711877 11.29517364 29.58813477 11.2746582 C29.59035538 12.12212616 29.59257599 12.96959412 29.59486389 13.84274292 C29.61487738 21.81826864 29.63011432 29.79378595 29.63994694 37.76933098 C29.64517186 41.86991316 29.65226244 45.97047465 29.66357422 50.07104492 C29.67441695 54.02620778 29.68041455 57.98135069 29.68301201 61.93652725 C29.68486375 63.44764648 29.68847958 64.95876457 29.69386482 66.46987534 C29.70109363 68.58174778 29.70212493 70.69353715 29.70166016 72.80541992 C29.70388077 74.00899139 29.70610138 75.21256287 29.70838928 76.4526062 C29.58813477 79.2746582 29.58813477 79.2746582 28.58813477 81.2746582 C27.13071014 81.35562624 25.6720067 81.41383595 24.21313477 81.4621582 C23.40102539 81.49696289 22.58891602 81.53176758 21.75219727 81.56762695 C21.03805664 81.47094727 20.32391602 81.37426758 19.58813477 81.2746582 C17.22542514 77.73059377 17.32300188 76.18736515 17.28515625 71.9831543 C17.26851425 70.6852597 17.25187225 69.38736511 17.23472595 68.05014038 C17.2261659 66.63279252 17.21766824 65.21544428 17.20922852 63.7980957 C17.19305584 62.34745156 17.17587609 60.89681831 17.1577301 59.44619751 C17.11204653 55.6293236 17.07723516 51.81243524 17.04553223 47.99542236 C16.99364538 41.87834541 16.92866403 35.76142813 16.85731697 29.64455032 C16.83441973 27.50347572 16.81819239 25.36242165 16.80259705 23.22128296 C16.78910721 21.92969269 16.77561737 20.63810242 16.76171875 19.30737305 C16.75220688 18.16392426 16.74269501 17.02047546 16.7328949 15.84237671 C16.8779567 13.34241867 16.8779567 13.34241867 15.58813477 12.2746582 C11.85045736 12.07037219 8.11930985 11.92812876 4.37719727 11.8449707 C-0.27577578 11.66309554 -3.70730386 11.41499781 -7.41186523 8.2746582 C-7.84936523 5.2121582 -7.84936523 5.2121582 -7.41186523 2.2746582 C-4.7925364 -0.34467063 -3.65119154 0.01683747 0 0 Z " fill="#F9FAFB" transform="translate(109.411865234375,289.725341796875)"/>
<path d="M0 0 C1.73200905 -0.00956978 1.73200905 -0.00956978 3.49900818 -0.01933289 C4.75625198 -0.02044571 6.01349579 -0.02155853 7.30883789 -0.02270508 C8.5900502 -0.02603348 9.87126251 -0.02936188 11.19129944 -0.03279114 C13.90748944 -0.03878825 16.62364759 -0.04063045 19.33984375 -0.04003906 C22.82490006 -0.03993742 26.30975269 -0.05358849 29.7947607 -0.07081127 C33.11195647 -0.08458699 36.42911384 -0.08401957 39.74633789 -0.08520508 C41.00155746 -0.09239059 42.25677704 -0.09957611 43.55003357 -0.10697937 C45.28677086 -0.10236443 45.28677086 -0.10236443 47.05859375 -0.09765625 C48.59295326 -0.09979378 48.59295326 -0.09979378 50.15830994 -0.10197449 C52.59399414 0.14526367 52.59399414 0.14526367 54.59399414 2.14526367 C54.71899414 5.77026367 54.71899414 5.77026367 54.59399414 9.14526367 C49.78954019 11.59225264 45.05607708 11.58146428 39.78149414 11.77026367 C38.8978418 11.80893555 38.01418945 11.84760742 37.10375977 11.88745117 C34.93416443 11.98127151 32.76410867 12.06433693 30.59399414 12.14526367 C30.58368668 12.99495224 30.57337921 13.84464081 30.5627594 14.72007751 C30.46495725 22.71070308 30.36246796 30.7012516 30.25465488 38.69174862 C30.19938831 42.80016784 30.14596249 46.90859414 30.09667969 51.01708984 C30.04909101 54.97879494 29.99675047 58.94041086 29.94105339 62.90200996 C29.92060483 64.41672114 29.90189597 65.93145679 29.88492012 67.44621086 C29.86093115 69.56074793 29.83086964 71.67511502 29.79931641 73.78955078 C29.78377213 74.99534286 29.76822784 76.20113495 29.75221252 77.44346619 C29.59399414 80.14526367 29.59399414 80.14526367 28.59399414 81.14526367 C22.85788303 81.41841182 22.85788303 81.41841182 20.59399414 81.14526367 C17.82978168 78.38105121 18.31932293 76.73242074 18.27514648 72.85961914 C18.26510086 72.21559143 18.25505524 71.57156372 18.2447052 70.90802002 C18.21377831 68.77617294 18.1968122 66.64445197 18.17993164 64.51245117 C18.16122758 63.03556221 18.14165474 61.55868402 18.12124634 60.08181763 C18.06983838 56.1922235 18.03025929 52.3025947 17.99310303 48.4128418 C17.95311747 44.44465495 17.90200036 40.47661345 17.85180664 36.50854492 C17.75494479 28.72087646 17.67160171 20.93315217 17.59399414 13.14526367 C10.33399414 12.81526367 3.07399414 12.48526367 -4.40600586 12.14526367 C-6.5185856 7.92010419 -6.6675055 5.76509059 -6.40600586 1.14526367 C-4.67785104 -0.58289115 -2.35504347 0.00878276 0 0 Z " fill="#F5F6F7" transform="translate(693.406005859375,289.854736328125)"/>
<path d="M0 0 C2.0078125 0.42578125 2.0078125 0.42578125 3.61676025 1.9889679 C5.49028687 5.27096876 5.37052403 8.17114943 5.27246094 11.84057617 C5.26475174 12.58082535 5.25704254 13.32107452 5.24909973 14.08375549 C5.21987685 16.52504358 5.16884168 18.96534172 5.1171875 21.40625 C5.09168475 23.10205873 5.06738893 24.797886 5.04425049 26.49372864 C4.99272017 30.04381313 4.93122223 33.59353119 4.86181641 37.14331055 C4.77280293 41.70318635 4.70142166 46.26311339 4.63653183 50.82339001 C4.57390486 55.16361678 4.50193793 59.50367478 4.4296875 63.84375 C4.41673393 64.67656179 4.40378036 65.50937359 4.39043427 66.3674221 C4.35241006 68.71146962 4.30767928 71.0552861 4.26074219 73.39916992 C4.25027359 74.09994659 4.23980499 74.80072327 4.22901917 75.5227356 C4.122524 80.31106975 4.122524 80.31106975 3.0078125 81.42578125 C-2.72829861 81.6989294 -2.72829861 81.6989294 -4.9921875 81.42578125 C-7.45314153 78.96482722 -7.23071551 77.59638894 -7.25213623 74.23806763 C-7.24651672 73.51747162 -7.24089722 72.79687561 -7.23510742 72.05444336 C-7.23700577 71.2949791 -7.23890411 70.53551483 -7.24085999 69.7530365 C-7.24457246 67.23629518 -7.23385786 64.71984078 -7.22265625 62.203125 C-7.22146471 60.45960016 -7.22101123 58.71607467 -7.2212677 56.97254944 C-7.21970207 53.31653838 -7.21140573 49.66062513 -7.19799805 46.00463867 C-7.18099551 41.30776558 -7.17718401 36.61099995 -7.17794323 31.91409969 C-7.17767191 28.31371527 -7.17219712 24.71335455 -7.16494179 21.11297798 C-7.16174983 19.3805414 -7.15978649 17.64810213 -7.15904808 15.91566277 C-7.15689078 13.49963636 -7.14816027 11.08372622 -7.13745117 8.66772461 C-7.13790436 7.94510437 -7.13835754 7.22248413 -7.13882446 6.47796631 C-7.09718972 0.08592693 -6.34788411 0.33964694 0 0 Z " fill="#F8F9FA" transform="translate(275.9921875,289.57421875)"/>
<path d="M0 0 C2.64 0 5.28 0 8 0 C11.52271124 7.43313866 14.04584899 15.02968917 16.44335938 22.88671875 C16.73146484 23.79035156 17.01957031 24.69398438 17.31640625 25.625 C17.56849854 26.44226563 17.82059082 27.25953125 18.08032227 28.1015625 C18.53556274 29.04128906 18.53556274 29.04128906 19 30 C19.99 30.33 20.98 30.66 22 31 C22.13535156 30.34257812 22.27070313 29.68515625 22.41015625 29.0078125 C23.95221203 22.19321869 26.08407652 15.81452206 28.625 9.3125 C28.93832275 8.51021973 29.25164551 7.70793945 29.57446289 6.88134766 C31.85671847 1.14328153 31.85671847 1.14328153 33 0 C35.9375 -0.1875 35.9375 -0.1875 39 0 C41.38195431 2.38195431 41.32532024 3.1437627 41.59765625 6.41015625 C41.6764502 7.31040527 41.75524414 8.2106543 41.83642578 9.13818359 C41.91103027 10.10320801 41.98563477 11.06823242 42.0625 12.0625 C42.14483887 13.04299316 42.22717773 14.02348633 42.31201172 15.03369141 C43.02053703 23.6805062 43.56332932 32.33553444 44 41 C39.125 40.125 39.125 40.125 38 39 C37.70109551 37.07841754 37.46084894 35.1476405 37.24609375 33.21484375 C37.11396484 32.04501953 36.98183594 30.87519531 36.84570312 29.66992188 C36.71099609 28.43822266 36.57628906 27.20652344 36.4375 25.9375 C36.29892578 24.70193359 36.16035156 23.46636719 36.01757812 22.19335938 C35.67450012 19.12931788 35.33549246 16.06487982 35 13 C32.0519 14.47405 31.94621985 16.42365219 30.87109375 19.49609375 C30.27844727 21.16961914 30.27844727 21.16961914 29.67382812 22.87695312 C29.26583984 24.05193359 28.85785156 25.22691406 28.4375 26.4375 C27.62459069 28.74901208 26.81083149 31.0602255 25.99609375 33.37109375 C25.63700928 34.40161865 25.2779248 35.43214355 24.90795898 36.49389648 C24 39 24 39 23 41 C21.68 41 20.36 41 19 41 C16.03256687 37.37313728 15 35.7546322 15 31 C14.34 31 13.68 31 13 31 C13 29.02 13 27.04 13 25 C12.34 25 11.68 25 11 25 C10.87625 24.2575 10.7525 23.515 10.625 22.75 C9.63653056 18.40073444 7.67371545 15.5138173 5 12 C4.94465088 12.59425781 4.88930176 13.18851562 4.83227539 13.80078125 C4.57696823 16.53397589 4.3197462 19.26698721 4.0625 22 C3.97548828 22.93457031 3.88847656 23.86914062 3.79882812 24.83203125 C3.28868841 30.23573347 2.7044679 35.61811907 2 41 C0.68 41 -0.64 41 -2 41 C-3.25938092 38.48123817 -3.05676718 36.89415814 -2.94921875 34.08203125 C-2.91111084 33.08107422 -2.87300293 32.08011719 -2.83374023 31.04882812 C-2.76135132 29.4468457 -2.76135132 29.4468457 -2.6875 27.8125 C-2.64117432 26.73291016 -2.59484863 25.65332031 -2.54711914 24.54101562 C-2.15150588 16.27078513 -1.34838305 8.1688449 0 0 Z M4 6 C5 9 5 9 5 9 Z " fill="#DADBDC" transform="translate(358,394)"/>
<path d="M0 0 C1.65 0.66 3.3 1.32 5 2 C5 16.19 5 30.38 5 45 C1 44 1 44 -2 42 C-2.86625 42.66 -3.7325 43.32 -4.625 44 C-8.3637114 46.21553268 -9.76712077 46.8638529 -14 46 C-16.61353158 44.26820533 -18.93221392 42.36143617 -21 40 C-21 39.34 -21 38.68 -21 38 C-21.66 37.67 -22.32 37.34 -23 37 C-24.39471419 32.11850033 -23.79507643 28.70139066 -22 24 C-19.31271098 19.87309186 -16.42858903 17.17403462 -12 15 C-8.3069883 14.67909002 -4.69618115 14.76323395 -1 15 C-1.01160156 14.00097656 -1.02320313 13.00195312 -1.03515625 11.97265625 C-1.04417969 10.68230469 -1.05320312 9.39195312 -1.0625 8.0625 C-1.07410156 6.77472656 -1.08570313 5.48695313 -1.09765625 4.16015625 C-1 1 -1 1 0 0 Z M-15.25 23.1875 C-17.40846233 26.65645732 -17.92955369 28.91411413 -18 33 C-17.22261102 35.52405409 -16.20859351 37.63115672 -15 40 C-14.06027344 40.09087891 -14.06027344 40.09087891 -13.1015625 40.18359375 C-12.28429687 40.26738281 -11.46703125 40.35117187 -10.625 40.4375 C-9.40683594 40.55931641 -9.40683594 40.55931641 -8.1640625 40.68359375 C-6 41 -6 41 -4 42 C-3.67 41.01 -3.34 40.02 -3 39 C-2.34 38.67 -1.68 38.34 -1 38 C-0.9190687 35.39521117 -0.85954566 32.79293347 -0.8125 30.1875 C-0.78736328 29.44951172 -0.76222656 28.71152344 -0.73632812 27.95117188 C-0.65495268 23.7609914 -0.65495268 23.7609914 -2.26171875 19.98828125 C-7.03540616 17.27425223 -11.73216503 19.76738267 -15.25 23.1875 Z " fill="#EBECED" transform="translate(484,390)"/>
<path d="M0 0 C3.875 0.875 3.875 0.875 5 2 C5.23678716 4.69235776 5.42198025 7.36498156 5.5625 10.0625 C5.60568359 10.82111328 5.64886719 11.57972656 5.69335938 12.36132812 C5.79973633 14.24065438 5.90039934 16.12030244 6 18 C6.99 18 7.98 18 9 18 C9.46019531 17.50886719 9.92039062 17.01773437 10.39453125 16.51171875 C12 15 12 15 14.26171875 14.70703125 C15.06222656 14.74183594 15.86273438 14.77664063 16.6875 14.8125 C17.89986328 14.85310547 17.89986328 14.85310547 19.13671875 14.89453125 C19.75160156 14.92933594 20.36648438 14.96414063 21 15 C21.28875 15.598125 21.5775 16.19625 21.875 16.8125 C23.04742026 19.19327792 23.04742026 19.19327792 25 22 C25.22705078 24.4519043 25.22705078 24.4519043 25.1953125 27.32421875 C25.18886719 28.35224609 25.18242187 29.38027344 25.17578125 30.43945312 C25.15902344 31.51130859 25.14226562 32.58316406 25.125 33.6875 C25.11597656 34.77095703 25.10695313 35.85441406 25.09765625 36.97070312 C25.0740734 39.6473571 25.04116126 42.32356797 25 45 C23.02 44.67 21.04 44.34 19 44 C18.505 32.12 18.505 32.12 18 20 C9.39626524 21.06685926 9.39626524 21.06685926 6 25 C5.49844978 27.2143507 5.49844978 27.2143507 5.48828125 29.66796875 C5.43510742 31.00698242 5.43510742 31.00698242 5.38085938 32.37304688 C5.35830078 33.30181641 5.33574219 34.23058594 5.3125 35.1875 C5.27833984 36.12787109 5.24417969 37.06824219 5.20898438 38.03710938 C5.12651782 40.35795393 5.05736597 42.67842148 5 45 C0.125 44.125 0.125 44.125 -1 43 C-1.10116109 39.99360697 -1.13968674 37.01066703 -1.1328125 34.00390625 C-1.13376923 33.1000267 -1.13472595 32.19614716 -1.13571167 31.26487732 C-1.1363936 29.34902884 -1.13453841 27.43317806 -1.13037109 25.51733398 C-1.12502919 22.57856058 -1.13031245 19.63994045 -1.13671875 16.70117188 C-1.13605785 14.84374966 -1.13477644 12.98632754 -1.1328125 11.12890625 C-1.13483673 10.24554092 -1.13686096 9.3621756 -1.13894653 8.45204163 C-1.11495408 2.22990815 -1.11495408 2.22990815 0 0 Z " fill="#F3F4F5" transform="translate(312,390)"/>
<path d="M0 0 C2.9375 2.25 2.9375 2.25 5 5 C5.5775 5.5775 6.155 6.155 6.75 6.75 C9.09552616 10.97194708 9.6348657 15.49630428 8.4453125 20.1875 C6.10697473 25.65051921 2.47112471 28.76835703 -3 31 C-9.01849137 31.95028811 -12.11658296 30.22489804 -17 27 C-17.70898438 26.55785156 -18.41796875 26.11570312 -19.1484375 25.66015625 C-22.1011043 23.01272294 -21.87096283 20.36490339 -22.09765625 16.56640625 C-21.89962855 11.36223829 -19.90328556 8.04225257 -16.5625 4.1875 C-11.41359948 -0.20790288 -6.67088217 -1.07210606 0 0 Z M-13 7 C-15.93595064 11.40392596 -16.28128213 14.49130493 -15.3125 19.6875 C-13.92291783 23.19454071 -13.39449921 24.44036523 -10 26 C-5.7901817 26.61233721 -3.73414629 26.43736375 -0.0625 24.25 C2.9951439 19.43189446 2.91926097 14.5691894 2 9 C0.41159436 6.35860635 -0.39660264 5.25141556 -3.25 4.0625 C-7.1012652 3.97497125 -9.62421813 5.21656807 -13 7 Z " fill="#DEDFE0" transform="translate(615,405)"/>
<path d="M0 0 C0.33 0.66 0.66 1.32 1 2 C1.99 2.66 2.98 3.32 4 4 C4.36889648 5.98364258 4.36889648 5.98364258 4.37109375 8.39453125 C4.39719727 9.70454102 4.39719727 9.70454102 4.42382812 11.04101562 C4.43288483 12.87693817 4.43814267 14.7128837 4.43945312 16.54882812 C4.55553872 22.15652081 4.55553872 22.15652081 7.03515625 27.13671875 C8.00775391 28.05904297 8.00775391 28.05904297 9 29 C6 31 6 31 4.0625 30.75 C2 30 2 30 0.0625 28.75 C-0.618125 28.5025 -1.29875 28.255 -2 28 C-2.7425 28.474375 -3.485 28.94875 -4.25 29.4375 C-7.58061526 31.32989503 -9.41779654 31.35274179 -13.12109375 30.69921875 C-15 30 -15 30 -17.625 27.375 C-19 24 -19 24 -18.5 20.3125 C-16.43333469 15.7486141 -14.65593975 14.68397511 -10.125 12.8125 C-6.94334748 11.98527034 -4.2715123 11.8442137 -1 12 C-1.6954344 8.99615946 -1.6954344 8.99615946 -3 6 C-6.02604534 4.74784331 -8.15573509 5.06079161 -11.25 5.9375 C-12.4875 6.288125 -13.725 6.63875 -15 7 C-15.66 5.68 -16.32 4.36 -17 3 C-11.42531458 -0.61601216 -6.39432346 -0.30720059 0 0 Z M-12 18 C-12.89830839 21.05272465 -12.89830839 21.05272465 -13 24 C-10.03 24.99 -7.06 25.98 -4 27 C-1.18037811 24.18037811 -1.00812929 23.47149878 -0.9375 19.375 C-0.958125 18.26125 -0.97875 17.1475 -1 16 C-5.12944888 15.80793261 -8.43483742 15.75904066 -12 18 Z " fill="#E2E3E4" transform="translate(680,405)"/>
<path d="M0 0 C0.89203125 0.01804687 1.7840625 0.03609375 2.703125 0.0546875 C3.71632813 0.08949219 3.71632813 0.08949219 4.75 0.125 C5.08 1.445 5.41 2.765 5.75 4.125 C6.41 4.125 7.07 4.125 7.75 4.125 C10.39694025 8.75714543 10.75 10.47468203 10.75 16.125 C4.15 16.125 -2.45 16.125 -9.25 16.125 C-8.16557174 22.96212354 -8.16557174 22.96212354 -4.8125 24.5625 C0.06206554 25.33216824 4.82678315 25.2826831 9.75 25.125 C9.37890625 27.046875 9.37890625 27.046875 8.75 29.125 C4.78316437 31.52914281 0.26725036 31.96368067 -4.25 31.125 C-7.13842129 29.7375262 -9.66906502 28.01348901 -12.25 26.125 C-13.24 25.465 -14.23 24.805 -15.25 24.125 C-16.6340082 17.84373201 -16.45712656 12.94861362 -13.140625 7.203125 C-9.52314884 1.79924086 -6.68049329 -0.17580245 0 0 Z M-8.25 7.125 C-8.97965366 9.68782742 -8.97965366 9.68782742 -9.25 12.125 C-6.60541621 13.44729189 -4.57238699 13.22177194 -1.625 13.1875 C-0.62210937 13.17847656 0.38078125 13.16945313 1.4140625 13.16015625 C2.18492187 13.14855469 2.95578125 13.13695312 3.75 13.125 C4.4378236 10.77132287 4.4378236 10.77132287 4.75 8.125 C4.09 7.135 3.43 6.145 2.75 5.125 C-3.13489457 4.5709433 -3.13489457 4.5709433 -8.25 7.125 Z " fill="#E2E3E4" transform="translate(263.25,404.875)"/>
<path d="M0 0 C0.89203125 0.01804687 1.7840625 0.03609375 2.703125 0.0546875 C3.71632813 0.08949219 3.71632813 0.08949219 4.75 0.125 C5.08 1.445 5.41 2.765 5.75 4.125 C6.41 4.125 7.07 4.125 7.75 4.125 C9.9518931 8.80402284 10.75 10.75016458 10.75 16.125 C1.345 16.62 1.345 16.62 -8.25 17.125 C-8.25 19.435 -8.25 21.745 -8.25 24.125 C-7.20199219 24.24617188 -6.15398438 24.36734375 -5.07421875 24.4921875 C-3.69526114 24.66103945 -2.31635761 24.83033341 -0.9375 25 C-0.24720703 25.07863281 0.44308594 25.15726562 1.15429688 25.23828125 C4.70639471 25.68443847 6.7197029 26.10480193 9.75 28.125 C6.79675595 31.07824405 4.55988743 31.06387642 0.4375 31.375 C-4.47504112 31.04194636 -8.33348325 29.67057803 -12.1875 26.5625 C-13.25 25.125 -13.25 25.125 -13.25 23.125 C-13.91 22.795 -14.57 22.465 -15.25 22.125 C-17.10692529 18.41114942 -16.04938562 14.08559239 -15.25 10.125 C-14.1500535 7.66459336 -13.04453092 6.19142954 -11.25 4.125 C-10.59 4.125 -9.93 4.125 -9.25 4.125 C-9.25 3.465 -9.25 2.805 -9.25 2.125 C-6.03817851 0.21891902 -3.71117397 -0.09766247 0 0 Z M-7.75 6.875 C-9.53546644 8.98435932 -9.53546644 8.98435932 -8.84375 11.265625 C-8.6478125 11.87921875 -8.451875 12.4928125 -8.25 13.125 C-6.27090602 13.15186553 -4.29171029 13.17133375 -2.3125 13.1875 C-0.65927734 13.20490234 -0.65927734 13.20490234 1.02734375 13.22265625 C3.66447634 13.43762571 3.66447634 13.43762571 4.75 12.125 C5.08343551 9.66707971 5.08343551 9.66707971 4.75 7.125 C0.4338902 4.24759347 -3.39029852 3.82320897 -7.75 6.875 Z " fill="#E2E3E4" transform="translate(736.25,404.875)"/>
<path d="M0 0 C0.99 0.33 1.98 0.66 3 1 C3 1.99 3 2.98 3 4 C3.99 4.33 4.98 4.66 6 5 C6.33 4.01 6.66 3.02 7 2 C9.96660295 -0.25461824 13.36428882 -0.61610734 17.04394531 -0.49072266 C20.01907855 0.25566 21.3688415 2.23708238 23.00756836 4.71166992 C24.98330224 9.26727969 24.50914006 14.06385173 24.3125 18.9375 C24.28994141 20.00291016 24.26738281 21.06832031 24.24414062 22.16601562 C24.18555756 24.77882022 24.10358677 27.38865733 24 30 C22.35 30 20.7 30 19 30 C17.74751498 27.49502996 17.88625594 25.79146726 17.90234375 22.9921875 C17.90556641 22.00605469 17.90878906 21.01992188 17.91210938 20.00390625 C17.92048828 18.97136719 17.92886719 17.93882812 17.9375 16.875 C17.94201172 15.83472656 17.94652344 14.79445313 17.95117188 13.72265625 C17.96298048 11.14838038 17.97944925 8.57421854 18 6 C12.31379141 5.80392384 9.6882672 6.10391093 4 8 C4 15.26 4 22.52 4 30 C2.35 30 0.7 30 -1 30 C-2.38308781 27.23382437 -2.11210196 24.98982 -2.09765625 21.8984375 C-2.09443359 20.68671875 -2.09121094 19.475 -2.08789062 18.2265625 C-2.07951172 16.95554687 -2.07113281 15.68453125 -2.0625 14.375 C-2.05798828 13.09625 -2.05347656 11.8175 -2.04882812 10.5 C-2.03701203 7.33328708 -2.02053815 4.16666644 -2 1 C-1.34 0.67 -0.68 0.34 0 0 Z " fill="#F2F3F4" transform="translate(526,405)"/>
<path d="M0 0 C4.23580253 -0.07407906 8.47126341 -0.12856696 12.70751953 -0.16479492 C14.14899258 -0.17989483 15.59041959 -0.20037658 17.03173828 -0.22631836 C19.10200343 -0.2626513 21.17166207 -0.27971329 23.2421875 -0.29296875 C24.4885498 -0.3086792 25.73491211 -0.32438965 27.01904297 -0.34057617 C28.00275879 -0.22818604 28.98647461 -0.1157959 30 0 C30.66 0.99 31.32 1.98 32 3 C31.67 3.66 31.34 4.32 31 5 C26.71 5 22.42 5 18 5 C18 16.88 18 28.76 18 41 C16.35 41 14.7 41 13 41 C11.02170928 39.02170928 11.74496068 35.17672973 11.68359375 32.46484375 C11.66281265 31.71159317 11.64203156 30.95834259 11.62062073 30.18226624 C11.55504575 27.7674401 11.49620379 25.35250202 11.4375 22.9375 C11.3943223 21.30402471 11.35070827 19.6705609 11.30664062 18.03710938 C11.19935638 14.02485536 11.09811179 10.01248836 11 6 C10.30132812 5.95101563 9.60265625 5.90203125 8.8828125 5.8515625 C7.97273437 5.77679688 7.06265625 5.70203125 6.125 5.625 C5.22007812 5.55539062 4.31515625 5.48578125 3.3828125 5.4140625 C1 5 1 5 -1 3 C-0.67 2.01 -0.34 1.02 0 0 Z " fill="#F6F7F8" transform="translate(211,394)"/>
<path d="M0 0 C3.33537489 1.11179163 4.63707344 2.47411298 7 5 C7.33 4.01 7.66 3.02 8 2 C11.67633977 -0.79401823 15.60894791 -0.48789468 20 0 C21.875 2.1875 21.875 2.1875 23 5 C23.350625 5.6703125 23.70125 6.340625 24.0625 7.03125 C25.45670195 11.44622283 25.20948256 15.71469916 25.125 20.3125 C25.11597656 21.24384766 25.10695313 22.17519531 25.09765625 23.13476562 C25.07418263 25.4234436 25.04134729 27.71158672 25 30 C23.33388095 30.042721 21.66617115 30.04063832 20 30 C17.86861816 27.86861816 18.62475607 23.21642206 18.5 20.25 C18.22226608 13.06932879 18.22226608 13.06932879 17 6 C15.14375 5.938125 15.14375 5.938125 13.25 5.875 C12.55390625 5.85179687 11.8578125 5.82859375 11.140625 5.8046875 C8.57815832 5.90751009 8.57815832 5.90751009 5 8 C4.67 15.26 4.34 22.52 4 30 C2.68 30 1.36 30 0 30 C-1.3767748 27.2464504 -1.12969689 25.01159591 -1.1328125 21.93359375 C-1.13410156 20.72638672 -1.13539063 19.51917969 -1.13671875 18.27539062 C-1.13091797 16.37563477 -1.13091797 16.37563477 -1.125 14.4375 C-1.12886719 13.16712891 -1.13273437 11.89675781 -1.13671875 10.58789062 C-1.13542969 9.38197266 -1.13414062 8.17605469 -1.1328125 6.93359375 C-1.13168457 5.82040771 -1.13055664 4.70722168 -1.12939453 3.56030273 C-1 1 -1 1 0 0 Z " fill="#EFF0F1" transform="translate(428,405)"/>
<path d="M0 0 C0.94875 0.66 1.8975 1.32 2.875 2 C5.66238955 4.17968457 5.66238955 4.17968457 8 4 C8 3.34 8 2.68 8 2 C11.20380017 -0.13586678 12.01939967 -0.23132175 15.6875 -0.125 C16.89986328 -0.09792969 16.89986328 -0.09792969 18.13671875 -0.0703125 C19.05904297 -0.03550781 19.05904297 -0.03550781 20 0 C20.68774405 1.32258472 21.34711373 2.65986503 22 4 C22.53238281 5.03253906 23.06476562 6.06507813 23.61328125 7.12890625 C25.53906671 11.66765171 25.33150448 16.08196419 25.1875 20.9375 C25.16719727 22.24944336 25.16719727 22.24944336 25.14648438 23.58789062 C25.11144109 25.72553086 25.05764541 27.86284984 25 30 C23.35 30 21.7 30 20 30 C18.38301761 26.76603521 18.6596946 23.18559803 18.5 19.625 C18.43074156 18.09618406 18.3579375 16.5675238 18.28125 15.0390625 C18.25095703 14.36053223 18.22066406 13.68200195 18.18945312 12.98291016 C17.98837559 10.87833319 17.67325641 9.00623917 17 7 C14.15916359 5.57958179 12.14522722 5.68547728 9 6 C6.64693214 7.32028423 6.64693214 7.32028423 5 10 C4.36327893 13.40906353 4.30332779 16.78854194 4.25 20.25 C4.22035156 21.18585938 4.19070313 22.12171875 4.16015625 23.0859375 C4.08960196 25.39071092 4.03683748 27.69448168 4 30 C2.68 30 1.36 30 0 30 C-1.3767748 27.2464504 -1.12969689 25.01159591 -1.1328125 21.93359375 C-1.13410156 20.72638672 -1.13539063 19.51917969 -1.13671875 18.27539062 C-1.13091797 16.37563477 -1.13091797 16.37563477 -1.125 14.4375 C-1.12886719 13.16712891 -1.13273438 11.89675781 -1.13671875 10.58789062 C-1.13542969 9.38197266 -1.13414062 8.17605469 -1.1328125 6.93359375 C-1.13168457 5.82040771 -1.13055664 4.70722168 -1.12939453 3.56030273 C-1 1 -1 1 0 0 Z " fill="#ECEDEE" transform="translate(561,405)"/>
<path d="M0 0 C0.99 0.33 1.98 0.66 3 1 C3.33 2.32 3.66 3.64 4 5 C6.64 5.66 9.28 6.32 12 7 C12 8.32 12 9.64 12 11 C9.03 11 6.06 11 3 11 C3.14075205 13.93782469 3.2873838 16.87515171 3.4375 19.8125 C3.47681641 20.64587891 3.51613281 21.47925781 3.55664062 22.33789062 C3.61948242 23.54155273 3.61948242 23.54155273 3.68359375 24.76953125 C3.72025146 25.50792236 3.75690918 26.24631348 3.79467773 27.00708008 C3.94842141 29.207495 3.94842141 29.207495 5 32 C5.94875 31.979375 6.8975 31.95875 7.875 31.9375 C11 32 11 32 13 33 C12.67 33.99 12.34 34.98 12 36 C4.73946785 37.35365854 4.73946785 37.35365854 1.125 35.625 C0.42375 35.08875 -0.2775 34.5525 -1 34 C-1.66 33.67 -2.32 33.34 -3 33 C-3 26.4 -3 19.8 -3 13 C-4.32 12.67 -5.64 12.34 -7 12 C-7.33 10.68 -7.66 9.36 -8 8 C-6.824375 7.6596875 -6.824375 7.6596875 -5.625 7.3125 C-2.78943005 6.22711327 -2.78943005 6.22711327 -1.75 3.4375 C-1.5025 2.633125 -1.255 1.82875 -1 1 C-0.67 0.67 -0.34 0.34 0 0 Z " fill="#EAEBEC" transform="translate(701,399)"/>
<path d="M0 0 C2.33203125 0.57421875 2.33203125 0.57421875 5 2 C6.51171875 5.08203125 6.51171875 5.08203125 7.6875 8.8125 C8.28111328 10.64748047 8.28111328 10.64748047 8.88671875 12.51953125 C9.25410156 13.66808594 9.62148438 14.81664062 10 16 C10.6494342 17.67345673 11.30892211 19.34330643 12 21 C15.51685701 17.0128656 16.6431066 12.29396591 18.10546875 7.3125 C19.68960886 2.20692743 19.68960886 2.20692743 23 0 C23.99 0.99 24.98 1.98 26 3 C24.90000272 6.18895396 23.79424309 9.37588156 22.6875 12.5625 C22.37876953 13.45775391 22.07003906 14.35300781 21.75195312 15.27539062 C20.01145543 20.27703138 18.15653361 25.16272923 16 30 C13.1875 30.3125 13.1875 30.3125 10 30 C7.29638531 26.75566237 7 25.29107948 7 21 C6.34 20.67 5.68 20.34 5 20 C3.03191281 16.93853104 2.80009165 14.59835033 3 11 C2.34 11 1.68 11 1 11 C-0.62950412 6.87831311 -1.26264601 4.29299643 0 0 Z M14 25 C15 27 15 27 15 27 Z " fill="#D8D9DA" transform="translate(630,405)"/>
<path d="M0 0 C0.99 0.66 1.98 1.32 3 2 C2.67 3.32 2.34 4.64 2 6 C0.948125 5.79375 -0.10375 5.5875 -1.1875 5.375 C-5.10450417 4.9897209 -6.75308338 4.83538892 -10 7 C-13.25239131 12.42065219 -13.24561621 15.87572031 -12 22 C-11.67 22.66 -11.34 23.32 -11 24 C-8.4684134 24.63801836 -6.00160498 25.16687368 -3.4375 25.625 C-2.72658203 25.7590625 -2.01566406 25.893125 -1.28320312 26.03125 C0.47642553 26.36191847 2.23804548 26.68195767 4 27 C1.11171799 30.16335648 -0.98819674 30.90454686 -5.3125 31.3125 C-9.69562193 30.94104899 -11.56394269 29.67248902 -15 27 C-15.763125 26.608125 -16.52625 26.21625 -17.3125 25.8125 C-20.15720374 22.75707746 -20.06941349 19.04680666 -20 15 C-19.25 11.75 -19.25 11.75 -18 9 C-17.608125 8.13375 -17.21625 7.2675 -16.8125 6.375 C-12.2504829 0.39718449 -7.09530218 -0.70953022 0 0 Z " fill="#E4E5E6" transform="translate(300,405)"/>
<path d="M0 0 C1.65 0.33 3.3 0.66 5 1 C5 14.2 5 27.4 5 41 C3.02 40.67 1.04 40.34 -1 40 C-1.02470935 34.78556667 -1.04286444 29.57116739 -1.05493164 24.35668945 C-1.059962 22.58259487 -1.06678699 20.80850444 -1.07543945 19.03442383 C-1.08756174 16.48517839 -1.09324126 13.93598774 -1.09765625 11.38671875 C-1.10281754 10.59287277 -1.10797882 9.79902679 -1.11329651 8.98112488 C-1.11362877 5.72343714 -1.03772826 3.11318479 0 0 Z " fill="#D0D1D2" transform="translate(508,394)"/>
<path d="M0 0 C1.21236328 0.02707031 1.21236328 0.02707031 2.44921875 0.0546875 C3.37154297 0.08949219 3.37154297 0.08949219 4.3125 0.125 C4.60125 0.723125 4.89 1.32125 5.1875 1.9375 C6.35992026 4.31827792 6.35992026 4.31827792 8.3125 7.125 C8.53955078 9.5769043 8.53955078 9.5769043 8.5078125 12.44921875 C8.50136719 13.47724609 8.49492187 14.50527344 8.48828125 15.56445312 C8.47152344 16.63630859 8.45476562 17.70816406 8.4375 18.8125 C8.42847656 19.89595703 8.41945313 20.97941406 8.41015625 22.09570312 C8.3865734 24.7723571 8.35366126 27.44856797 8.3125 30.125 C6.3325 29.795 4.3525 29.465 2.3125 29.125 C1.9825 21.205 1.6525 13.285 1.3125 5.125 C-2.3175 5.785 -5.9475 6.445 -9.6875 7.125 C-7.34938657 1.27971643 -6.06296973 -0.17573825 0 0 Z " fill="#DADBDC" transform="translate(328.6875,404.875)"/>
<path d="M0 0 C0.33 0 0.66 0 1 0 C1 66.33 1 132.66 1 201 C0.67 201 0.34 201 0 201 C0 134.67 0 68.34 0 0 Z " fill="#000102" transform="translate(958,263)"/>
<path d="M0 0 C0.33 0 0.66 0 1 0 C1 65.67 1 131.34 1 199 C0.67 199 0.34 199 0 199 C0 133.33 0 67.66 0 0 Z " fill="#000102" transform="translate(891,264)"/>
<path d="M0 0 C0.99 0.33 1.98 0.66 3 1 C3 1.99 3 2.98 3 4 C4.32 4.33 5.64 4.66 7 5 C6.67 5.99 6.34 6.98 6 8 C5.34 8 4.68 8 4 8 C4 15.26 4 22.52 4 30 C2.35 30 0.7 30 -1 30 C-2.38308781 27.23382437 -2.11210196 24.98982 -2.09765625 21.8984375 C-2.09443359 20.68671875 -2.09121094 19.475 -2.08789062 18.2265625 C-2.07951172 16.95554687 -2.07113281 15.68453125 -2.0625 14.375 C-2.05798828 13.09625 -2.05347656 11.8175 -2.04882812 10.5 C-2.03701203 7.33328708 -2.02053815 4.16666644 -2 1 C-1.34 0.67 -0.68 0.34 0 0 Z M7 2 C7.99 2.33 8.98 2.66 10 3 C9.01 3 8.02 3 7 3 C7 2.67 7 2.34 7 2 Z " fill="#E6E7E8" transform="translate(526,405)"/>
<path d="M0 0 C1.65 0 3.3 0 5 0 C5 9.9 5 19.8 5 30 C0 29 0 29 -1 28 C-1.09983058 26.01242972 -1.13080753 24.0213248 -1.1328125 22.03125 C-1.13410156 20.82082031 -1.13539063 19.61039062 -1.13671875 18.36328125 C-1.13285156 17.08839844 -1.12898438 15.81351562 -1.125 14.5 C-1.12886719 13.22511719 -1.13273437 11.95023437 -1.13671875 10.63671875 C-1.13542969 9.42628906 -1.13414062 8.21585937 -1.1328125 6.96875 C-1.13168457 5.84919922 -1.13055664 4.72964844 -1.12939453 3.57617188 C-1 1 -1 1 0 0 Z " fill="#EDEEEF" transform="translate(412,405)"/>
<path d="M0 0 C0.928125 0.66 1.85625 1.32 2.8125 2 C5.79636556 4.26574554 5.79636556 4.26574554 9 4 C7.84826645 6.46800047 6.95216435 8.04783565 5 10 C4.63047951 12.12860662 4.63047951 12.12860662 4.5859375 14.5703125 C4.54726563 15.46621094 4.50859375 16.36210937 4.46875 17.28515625 C4.4378125 18.22230469 4.406875 19.15945313 4.375 20.125 C4.33632813 21.06988281 4.29765625 22.01476562 4.2578125 22.98828125 C4.16338654 25.32532375 4.07781606 27.66235501 4 30 C2.68 30 1.36 30 0 30 C-1.3767748 27.2464504 -1.12969689 25.01159591 -1.1328125 21.93359375 C-1.13410156 20.72638672 -1.13539063 19.51917969 -1.13671875 18.27539062 C-1.13091797 16.37563477 -1.13091797 16.37563477 -1.125 14.4375 C-1.12886719 13.16712891 -1.13273438 11.89675781 -1.13671875 10.58789062 C-1.13542969 9.38197266 -1.13414062 8.17605469 -1.1328125 6.93359375 C-1.13168457 5.82040771 -1.13055664 4.70722168 -1.12939453 3.56030273 C-1 1 -1 1 0 0 Z M8 2 C8.66 2 9.32 2 10 2 C9.67 2.66 9.34 3.32 9 4 C8.67 3.34 8.34 2.68 8 2 Z " fill="#F1F2F3" transform="translate(561,405)"/>
<path d="M0 0 C0.33 0 0.66 0 1 0 C1 25.08 1 50.16 1 76 C0.67 76 0.34 76 0 76 C0 50.92 0 25.84 0 0 Z " fill="#212223" transform="translate(281,294)"/>
<path d="M0 0 C17.16 0 34.32 0 52 0 C52 0.33 52 0.66 52 1 C34.84 1 17.68 1 0 1 C0 0.67 0 0.34 0 0 Z " fill="#000102" transform="translate(770,465)"/>
<path d="M0 0 C16.83 0 33.66 0 51 0 C51 0.33 51 0.66 51 1 C34.17 1 17.34 1 0 1 C0 0.67 0 0.34 0 0 Z " fill="#000102" transform="translate(905,465)"/>
<path d="M0 0 C16.17 0 32.34 0 49 0 C49 0.33 49 0.66 49 1 C32.83 1 16.66 1 0 1 C0 0.67 0 0.34 0 0 Z " fill="#000102" transform="translate(551,372)"/>
<path d="M0 0 C16.17 0 32.34 0 49 0 C49 0.33 49 0.66 49 1 C32.83 1 16.66 1 0 1 C0 0.67 0 0.34 0 0 Z " fill="#000102" transform="translate(332,372)"/>
<path d="M0 0 C0.33 0 0.66 0 1 0 C1.33 5.61 1.66 11.22 2 17 C2.33 17 2.66 17 3 17 C3 19.64 3 22.28 3 25 C2.01 24.67 1.02 24.34 0 24 C0 16.08 0 8.16 0 0 Z " fill="#656667" transform="translate(411,409)"/>
<path d="M0 0 C12.87 0 25.74 0 39 0 C39 0.33 39 0.66 39 1 C26.13 1 13.26 1 0 1 C0 0.67 0 0.34 0 0 Z " fill="#000102" transform="translate(560,301)"/>
<path d="M0 0 C12.54 0 25.08 0 38 0 C38 0.33 38 0.66 38 1 C25.46 1 12.92 1 0 1 C0 0.67 0 0.34 0 0 Z " fill="#000102" transform="translate(342,301)"/>
<path d="M0 0 C0.33 0 0.66 0 1 0 C1 12.21 1 24.42 1 37 C0.67 37 0.34 37 0 37 C0 24.79 0 12.58 0 0 Z " fill="#010203" transform="translate(514,397)"/>
<path d="M0 0 C12.21 0 24.42 0 37 0 C37 0.33 37 0.66 37 1 C24.79 1 12.58 1 0 1 C0 0.67 0 0.34 0 0 Z " fill="#000102" transform="translate(560,336)"/>
<path d="M0 0 C11.88 0 23.76 0 36 0 C36 0.33 36 0.66 36 1 C24.12 1 12.24 1 0 1 C0 0.67 0 0.34 0 0 Z " fill="#000102" transform="translate(342,336)"/>
<path d="M0 0 C1.32 0.33 2.64 0.66 4 1 C4.33 2.32 4.66 3.64 5 5 C3.02 5.99 3.02 5.99 1 7 C0.01 6.01 -0.98 5.02 -2 4 C-1.34 2.68 -0.68 1.36 0 0 Z " fill="#D2D3D4" transform="translate(413,392)"/>
<path d="M0 0 C0.99 0.495 0.99 0.495 2 1 C1.67 9.25 1.34 17.5 1 26 C0.67 26 0.34 26 0 26 C0 17.42 0 8.84 0 0 Z " fill="#000102" transform="translate(630,301)"/>
<path d="M0 0 C0.33 0 0.66 0 1 0 C1 7.59 1 15.18 1 23 C0.67 23 0.34 23 0 23 C0 15.41 0 7.82 0 0 Z " fill="#000102" transform="translate(338,413)"/>
<path d="M0 0 C0.33 0 0.66 0 1 0 C1 6.6 1 13.2 1 20 C0.67 20 0.34 20 0 20 C0 13.4 0 6.8 0 0 Z " fill="#000102" transform="translate(433,415)"/>
<path d="M0 0 C6.27 0 12.54 0 19 0 C19 0.33 19 0.66 19 1 C12.73 1 6.46 1 0 1 C0 0.67 0 0.34 0 0 Z " fill="#000102" transform="translate(728,422)"/>
<path d="M0 0 C6.27 0 12.54 0 19 0 C19 0.33 19 0.66 19 1 C12.73 1 6.46 1 0 1 C0 0.67 0 0.34 0 0 Z " fill="#000102" transform="translate(255,422)"/>
<path d="M0 0 C0.33 0 0.66 0 1 0 C1 6.27 1 12.54 1 19 C0.67 19 0.34 19 0 19 C0 12.73 0 6.46 0 0 Z " fill="#000102" transform="translate(685,410)"/>
<path d="M0 0 C0.33 0 0.66 0 1 0 C1 6.27 1 12.54 1 19 C0.67 19 0.34 19 0 19 C0 12.73 0 6.46 0 0 Z " fill="#000102" transform="translate(630,343)"/>
<path d="M0 0 C0.33 0 0.66 0 1 0 C1 5.61 1 11.22 1 17 C0.67 17 0.34 17 0 17 C0 11.39 0 5.78 0 0 Z " fill="#000102" transform="translate(566,417)"/>
<path d="M0 0 C0.33 0 0.66 0 1 0 C1 3.3 1 6.6 1 10 C0.67 10 0.34 10 0 10 C0 6.7 0 3.4 0 0 Z " fill="#000102" transform="translate(402,420)"/>
<path d="M0 0 C0.33 0 0.66 0 1 0 C1 2.64 1 5.28 1 8 C0.67 8 0.34 8 0 8 C0 5.36 0 2.72 0 0 Z " fill="#000102" transform="translate(361,427)"/>
<path d="M0 0 C2.64 0 5.28 0 8 0 C8 0.33 8 0.66 8 1 C5.36 1 2.72 1 0 1 C0 0.67 0 0.34 0 0 Z " fill="#000102" transform="translate(705,411)"/>
<path d="M0 0 C0.33 0 0.66 0 1 0 C1 2.31 1 4.62 1 7 C0.67 7 0.34 7 0 7 C0 4.69 0 2.38 0 0 Z " fill="#000102" transform="translate(401,411)"/>
<path d="M0 0 C0.33 0 0.66 0 1 0 C1 2.31 1 4.62 1 7 C0.67 7 0.34 7 0 7 C0 4.69 0 2.38 0 0 Z " fill="#000102" transform="translate(400,396)"/>
<path d="M0 0 C2.31 0 4.62 0 7 0 C7 0.33 7 0.66 7 1 C4.69 1 2.38 1 0 1 C0 0.67 0 0.34 0 0 Z " fill="#000102" transform="translate(451,372)"/>
<path d="M0 0 C2.31 0 4.62 0 7 0 C7 0.33 7 0.66 7 1 C4.69 1 2.38 1 0 1 C0 0.67 0 0.34 0 0 Z " fill="#000102" transform="translate(395,372)"/>
<path d="M0 0 C2.31 0 4.62 0 7 0 C7 0.33 7 0.66 7 1 C4.69 1 2.38 1 0 1 C0 0.67 0 0.34 0 0 Z " fill="#000102" transform="translate(507,340)"/>
<path d="M0 0 C2.31 0 4.62 0 7 0 C7 0.33 7 0.66 7 1 C4.69 1 2.38 1 0 1 C0 0.67 0 0.34 0 0 Z " fill="#000102" transform="translate(649,301)"/>
<path d="M0 0 C1.98 0 3.96 0 6 0 C6 0.33 6 0.66 6 1 C4.02 1 2.04 1 0 1 C0 0.67 0 0.34 0 0 Z " fill="#000102" transform="translate(640,436)"/>
<path d="M0 0 C1.98 0 3.96 0 6 0 C6 0.33 6 0.66 6 1 C4.02 1 2.04 1 0 1 C0 0.67 0 0.34 0 0 Z " fill="#000102" transform="translate(508,436)"/>
<path d="M0 0 C1.98 0 3.96 0 6 0 C6 0.33 6 0.66 6 1 C4.02 1 2.04 1 0 1 C0 0.67 0 0.34 0 0 Z " fill="#000102" transform="translate(715,372)"/>
<path d="M0 0 C1.98 0 3.96 0 6 0 C6 0.33 6 0.66 6 1 C4.02 1 2.04 1 0 1 C0 0.67 0 0.34 0 0 Z " fill="#000102" transform="translate(671,372)"/>
<path d="M0 0 C1.98 0 3.96 0 6 0 C6 0.33 6 0.66 6 1 C4.02 1 2.04 1 0 1 C0 0.67 0 0.34 0 0 Z " fill="#000102" transform="translate(621,372)"/>
<path d="M0 0 C1.98 0 3.96 0 6 0 C6 0.33 6 0.66 6 1 C4.02 1 2.04 1 0 1 C0 0.67 0 0.34 0 0 Z " fill="#000102" transform="translate(476,372)"/>
<path d="M0 0 C1.98 0 3.96 0 6 0 C6 0.33 6 0.66 6 1 C4.02 1 2.04 1 0 1 C0 0.67 0 0.34 0 0 Z " fill="#000102" transform="translate(272,372)"/>
<path d="M0 0 C1.98 0 3.96 0 6 0 C6 0.33 6 0.66 6 1 C4.02 1 2.04 1 0 1 C0 0.67 0 0.34 0 0 Z " fill="#000102" transform="translate(130,372)"/>
<path d="M0 0 C0.33 0 0.66 0 1 0 C1 1.98 1 3.96 1 6 C0.67 6 0.34 6 0 6 C0 4.02 0 2.04 0 0 Z " fill="#000102" transform="translate(384,364)"/>
<path d="M0 0 C0.33 0 0.66 0 1 0 C1 1.98 1 3.96 1 6 C0.67 6 0.34 6 0 6 C0 4.02 0 2.04 0 0 Z " fill="#000102" transform="translate(250,299)"/>
<path d="M0 0 C1.65 0 3.3 0 5 0 C5 0.33 5 0.66 5 1 C3.35 1 1.7 1 0 1 C0 0.67 0 0.34 0 0 Z " fill="#000102" transform="translate(581,436)"/>
<path d="M0 0 C1.65 0 3.3 0 5 0 C5 0.33 5 0.66 5 1 C3.35 1 1.7 1 0 1 C0 0.67 0 0.34 0 0 Z " fill="#000102" transform="translate(561,436)"/>
<path d="M0 0 C1.65 0 3.3 0 5 0 C5 0.33 5 0.66 5 1 C3.35 1 1.7 1 0 1 C0 0.67 0 0.34 0 0 Z " fill="#000102" transform="translate(545,436)"/>
<path d="M0 0 C1.65 0 3.3 0 5 0 C5 0.33 5 0.66 5 1 C3.35 1 1.7 1 0 1 C0 0.67 0 0.34 0 0 Z " fill="#000102" transform="translate(525,436)"/>
<path d="M0 0 C1.65 0 3.3 0 5 0 C5 0.33 5 0.66 5 1 C3.35 1 1.7 1 0 1 C0 0.67 0 0.34 0 0 Z " fill="#000102" transform="translate(448,436)"/>
<path d="M0 0 C1.65 0 3.3 0 5 0 C5 0.33 5 0.66 5 1 C3.35 1 1.7 1 0 1 C0 0.67 0 0.34 0 0 Z " fill="#000102" transform="translate(428,436)"/>
<path d="M0 0 C1.65 0 3.3 0 5 0 C5 0.33 5 0.66 5 1 C3.35 1 1.7 1 0 1 C0 0.67 0 0.34 0 0 Z " fill="#000102" transform="translate(412,436)"/>
<path d="M0 0 C1.65 0 3.3 0 5 0 C5 0.33 5 0.66 5 1 C3.35 1 1.7 1 0 1 C0 0.67 0 0.34 0 0 Z " fill="#000102" transform="translate(397,436)"/>
<path d="M0 0 C1.65 0 3.3 0 5 0 C5 0.33 5 0.66 5 1 C3.35 1 1.7 1 0 1 C0 0.67 0 0.34 0 0 Z " fill="#000102" transform="translate(312,436)"/>
<path d="M0 0 C1.65 0 3.3 0 5 0 C5 0.33 5 0.66 5 1 C3.35 1 1.7 1 0 1 C0 0.67 0 0.34 0 0 Z " fill="#000102" transform="translate(224,436)"/>
<path d="M0 0 C0.33 0 0.66 0 1 0 C1 1.65 1 3.3 1 5 C0.67 5 0.34 5 0 5 C0 3.35 0 1.7 0 0 Z " fill="#0D0E0F" transform="translate(362,412)"/>
<path d="M0 0 C1.65 0 3.3 0 5 0 C5 0.33 5 0.66 5 1 C3.35 1 1.7 1 0 1 C0 0.67 0 0.34 0 0 Z " fill="#000102" transform="translate(241,372)"/>
<path d="M0 0 C1.65 0 3.3 0 5 0 C5 0.33 5 0.66 5 1 C3.35 1 1.7 1 0 1 C0 0.67 0 0.34 0 0 Z " fill="#000102" transform="translate(180,372)"/>
<path d="M0 0 C0.33 0 0.66 0 1 0 C1 1.65 1 3.3 1 5 C0.67 5 0.34 5 0 5 C0 3.35 0 1.7 0 0 Z " fill="#000102" transform="translate(534,313)"/>
<path d="M0 0 C1.65 0 3.3 0 5 0 C5 0.33 5 0.66 5 1 C3.35 1 1.7 1 0 1 C0 0.67 0 0.34 0 0 Z " fill="#000102" transform="translate(506,301)"/>
<path d="M0 0 C0.33 0 0.66 0 1 0 C1 1.65 1 3.3 1 5 C0.67 5 0.34 5 0 5 C0 3.35 0 1.7 0 0 Z " fill="#000102" transform="translate(749,293)"/>
<path d="M0 0 C0.33 0 0.66 0 1 0 C1 1.65 1 3.3 1 5 C0.67 5 0.34 5 0 5 C0 3.35 0 1.7 0 0 Z " fill="#000102" transform="translate(383,293)"/>
<path d="M0 0 C1.65 0 3.3 0 5 0 C5 0.33 5 0.66 5 1 C3.35 1 1.7 1 0 1 C0 0.67 0 0.34 0 0 Z " fill="#000102" transform="translate(530,242)"/>
<path d="M0 0 C4 1 4 1 4 1 Z " fill="#000102" transform="translate(485,436)"/>
<path d="M0 0 C4 1 4 1 4 1 Z " fill="#000102" transform="translate(356,436)"/>
<path d="M0 0 C4 1 4 1 4 1 Z " fill="#000102" transform="translate(333,436)"/>
<path d="M0 0 C4 1 4 1 4 1 Z " fill="#121415" transform="translate(743,430)"/>
<path d="M0 0 C4 1 4 1 4 1 Z " fill="#000102" transform="translate(300,430)"/>
<path d="M0 0 C1 4 1 4 1 4 Z " fill="#000102" transform="translate(287,419)"/>
<path d="M0 0 C1 4 1 4 1 4 Z " fill="#000102" transform="translate(586,412)"/>
<path d="M0 0 C4 1 4 1 4 1 Z " fill="#000102" transform="translate(213,352)"/>
<path d="M0 0 C1 4 1 4 1 4 Z " fill="#000102" transform="translate(724,315)"/>
<path d="M0 0 C1 4 1 4 1 4 Z " fill="#000102" transform="translate(678,313)"/>
<path d="M0 0 C1 4 1 4 1 4 Z " fill="#000102" transform="translate(724,304)"/>
<path d="M0 0 C4 1 4 1 4 1 Z " fill="#000102" transform="translate(743,301)"/>
<path d="M0 0 C3 1 3 1 3 1 Z " fill="#000102" transform="translate(740,436)"/>
<path d="M0 0 C3 1 3 1 3 1 Z " fill="#000102" transform="translate(730,436)"/>
<path d="M0 0 C3 1 3 1 3 1 Z " fill="#000102" transform="translate(602,436)"/>
<path d="M0 0 C3 1 3 1 3 1 Z " fill="#000102" transform="translate(267,436)"/>
<path d="" fill="#000102" transform="translate(0,0)"/>
<path d="" fill="#000102" transform="translate(0,0)"/>
<path d="" fill="#000102" transform="translate(0,0)"/>
<path d="M0 0 C3 1 3 1 3 1 Z " fill="#000102" transform="translate(438,411)"/>
<path d="M0 0 C0.33 0.66 0.66 1.32 1 2 C0.34 1.67 -0.32 1.34 -1 1 C-0.67 0.67 -0.34 0.34 0 0 Z " fill="#323435" transform="translate(303,410)"/>
<path d="M0 0 C3 1 3 1 3 1 Z " fill="#000102" transform="translate(298,411)"/>
<path d="" fill="#000102" transform="translate(0,0)"/>
<path d="" fill="#000102" transform="translate(0,0)"/>
<path d="M0 0 C3 1 3 1 3 1 Z " fill="#000102" transform="translate(104,301)"/>
<path d="" fill="#000102" transform="translate(0,0)"/>
<path d="" fill="#000102" transform="translate(0,0)"/>
<path d="M0 0 C2 1 2 1 2 1 Z " fill="#000102" transform="translate(710,436)"/>
<path d="M0 0 C2 1 2 1 2 1 Z " fill="#000102" transform="translate(703,436)"/>
<path d="M0 0 C2 1 2 1 2 1 Z " fill="#000102" transform="translate(686,436)"/>
<path d="M0 0 C2 1 2 1 2 1 Z " fill="#000102" transform="translate(673,436)"/>
<path d="M0 0 C2 1 2 1 2 1 Z " fill="#000102" transform="translate(666,436)"/>
<path d="M0 0 C2 1 2 1 2 1 Z " fill="#000102" transform="translate(612,436)"/>
<path d="M0 0 C2 1 2 1 2 1 Z " fill="#000102" transform="translate(476,436)"/>
<path d="M0 0 C2 1 2 1 2 1 Z " fill="#000102" transform="translate(468,436)"/>
<path d="M0 0 C2 1 2 1 2 1 Z " fill="#000102" transform="translate(298,436)"/>
<path d="M0 0 C2 1 2 1 2 1 Z " fill="#000102" transform="translate(289,436)"/>
<path d="M0 0 C2 1 2 1 2 1 Z " fill="#000102" transform="translate(257,436)"/>
<path d="" fill="#000102" transform="translate(0,0)"/>
<path d="" fill="#000102" transform="translate(0,0)"/>
<path d="" fill="#000102" transform="translate(0,0)"/>
<path d="" fill="#000102" transform="translate(0,0)"/>
<path d="" fill="#000102" transform="translate(0,0)"/>
<path d="" fill="#000102" transform="translate(0,0)"/>
<path d="M0 0 C2 1 2 1 2 1 Z " fill="#000102" transform="translate(673,422)"/>
<path d="" fill="#000102" transform="translate(0,0)"/>
<path d="" fill="#000102" transform="translate(0,0)"/>
<path d="" fill="#000102" transform="translate(0,0)"/>
<path d="" fill="#000102" transform="translate(0,0)"/>
<path d="" fill="#000102" transform="translate(0,0)"/>
<path d="" fill="#000102" transform="translate(0,0)"/>
<path d="" fill="#000102" transform="translate(0,0)"/>
<path d="M0 0 C2 1 2 1 2 1 Z " fill="#000102" transform="translate(669,411)"/>
<path d="M0 0 C2 1 2 1 2 1 Z " fill="#000102" transform="translate(605,411)"/>
<path d="M0 0 C2 1 2 1 2 1 Z " fill="#000102" transform="translate(571,411)"/>
<path d="M0 0 C2 1 2 1 2 1 Z " fill="#000102" transform="translate(536,411)"/>
<path d="M0 0 C2 1 2 1 2 1 Z " fill="#000102" transform="translate(473,411)"/>
<path d="" fill="#000102" transform="translate(0,0)"/>
<path d="M0 0 C2 1 2 1 2 1 Z " fill="#000102" transform="translate(323,411)"/>
<path d="M0 0 C2 1 2 1 2 1 Z " fill="#000102" transform="translate(292,411)"/>
<path d="" fill="#000102" transform="translate(0,0)"/>
<path d="" fill="#363839" transform="translate(0,0)"/>
<path d="M0 0 C2 1 2 1 2 1 Z " fill="#000102" transform="translate(633,405)"/>
<path d="" fill="#000102" transform="translate(0,0)"/>
<path d="M0 0 C2 1 2 1 2 1 Z " fill="#000102" transform="translate(301,405)"/>
<path d="" fill="#000102" transform="translate(0,0)"/>
<path d="M0 0 C2 1 2 1 2 1 Z " fill="#111213" transform="translate(398,394)"/>
<path d="M0 0 C2 1 2 1 2 1 Z " fill="#000102" transform="translate(316,390)"/>
<path d="" fill="#111213" transform="translate(0,0)"/>
<path d="" fill="#111213" transform="translate(0,0)"/>
<path d="" fill="#000102" transform="translate(0,0)"/>
<path d="M0 0 C2 1 2 1 2 1 Z " fill="#000102" transform="translate(630,340)"/>
<path d="M0 0 C2 1 2 1 2 1 Z " fill="#000102" transform="translate(518,338)"/>
<path d="" fill="#000102" transform="translate(0,0)"/>
<path d="" fill="#000102" transform="translate(0,0)"/>
<path d="" fill="#000102" transform="translate(0,0)"/>
<path d="M0 0 C2 1 2 1 2 1 Z " fill="#111213" transform="translate(599,290)"/>
<path d="" fill="#000102" transform="translate(0,0)"/>
<path d="M0 0 C2 1 2 1 2 1 Z " fill="#000102" transform="translate(1236,9)"/>
<path d="" fill="#000102" transform="translate(0,0)"/>
<path d="" fill="#000102" transform="translate(0,0)"/>
<path d="" fill="#000102" transform="translate(0,0)"/>
<path d="" fill="#000102" transform="translate(0,0)"/>
<path d="" fill="#000102" transform="translate(0,0)"/>
<path d="" fill="#000102" transform="translate(0,0)"/>
<path d="" fill="#000102" transform="translate(0,0)"/>
<path d="" fill="#000102" transform="translate(0,0)"/>
<path d="" fill="#000102" transform="translate(0,0)"/>
<path d="" fill="#000102" transform="translate(0,0)"/>
<path d="" fill="#000102" transform="translate(0,0)"/>
<path d="" fill="#000102" transform="translate(0,0)"/>
<path d="" fill="#000102" transform="translate(0,0)"/>
<path d="" fill="#000102" transform="translate(0,0)"/>
<path d="" fill="#4B4E4F" transform="translate(0,0)"/>
<path d="" fill="#000102" transform="translate(0,0)"/>
<path d="" fill="#222324" transform="translate(0,0)"/>
<path d="" fill="#000102" transform="translate(0,0)"/>
<path d="" fill="#222324" transform="translate(0,0)"/>
<path d="" fill="#000102" transform="translate(0,0)"/>
<path d="" fill="#000102" transform="translate(0,0)"/>
<path d="" fill="#222324" transform="translate(0,0)"/>
<path d="" fill="#000102" transform="translate(0,0)"/>
<path d="" fill="#000102" transform="translate(0,0)"/>
<path d="" fill="#000102" transform="translate(0,0)"/>
<path d="" fill="#000102" transform="translate(0,0)"/>
<path d="" fill="#000102" transform="translate(0,0)"/>
<path d="" fill="#222324" transform="translate(0,0)"/>
<path d="" fill="#000102" transform="translate(0,0)"/>
<path d="" fill="#000102" transform="translate(0,0)"/>
<path d="" fill="#000102" transform="translate(0,0)"/>
<path d="" fill="#000102" transform="translate(0,0)"/>
<path d="" fill="#000102" transform="translate(0,0)"/>
<path d="" fill="#222324" transform="translate(0,0)"/>
<path d="" fill="#000102" transform="translate(0,0)"/>
<path d="" fill="#000102" transform="translate(0,0)"/>
<path d="" fill="#222324" transform="translate(0,0)"/>
<path d="" fill="#000102" transform="translate(0,0)"/>
<path d="" fill="#000102" transform="translate(0,0)"/>
<path d="" fill="#000102" transform="translate(0,0)"/>
<path d="" fill="#000102" transform="translate(0,0)"/>
<path d="" fill="#000102" transform="translate(0,0)"/>
<path d="" fill="#000102" transform="translate(0,0)"/>
<path d="" fill="#000102" transform="translate(0,0)"/>
<path d="" fill="#000102" transform="translate(0,0)"/>
<path d="" fill="#000102" transform="translate(0,0)"/>
<path d="" fill="#000102" transform="translate(0,0)"/>
<path d="" fill="#000102" transform="translate(0,0)"/>
<path d="" fill="#000102" transform="translate(0,0)"/>
<path d="" fill="#000102" transform="translate(0,0)"/>
<path d="" fill="#000102" transform="translate(0,0)"/>
<path d="" fill="#000102" transform="translate(0,0)"/>
<path d="" fill="#000102" transform="translate(0,0)"/>
<path d="" fill="#000102" transform="translate(0,0)"/>
<path d="" fill="#000102" transform="translate(0,0)"/>
<path d="" fill="#000102" transform="translate(0,0)"/>
<path d="" fill="#000102" transform="translate(0,0)"/>
<path d="" fill="#000102" transform="translate(0,0)"/>
<path d="" fill="#000102" transform="translate(0,0)"/>
<path d="" fill="#000102" transform="translate(0,0)"/>
<path d="" fill="#000102" transform="translate(0,0)"/>
<path d="" fill="#000102" transform="translate(0,0)"/>
<path d="" fill="#000102" transform="translate(0,0)"/>
<path d="" fill="#000102" transform="translate(0,0)"/>
<path d="" fill="#000102" transform="translate(0,0)"/>
<path d="" fill="#000102" transform="translate(0,0)"/>
<path d="" fill="#000102" transform="translate(0,0)"/>
<path d="" fill="#000102" transform="translate(0,0)"/>
<path d="" fill="#000102" transform="translate(0,0)"/>
<path d="" fill="#000102" transform="translate(0,0)"/>
<path d="" fill="#000102" transform="translate(0,0)"/>
<path d="" fill="#000102" transform="translate(0,0)"/>
<path d="" fill="#000102" transform="translate(0,0)"/>
<path d="" fill="#000102" transform="translate(0,0)"/>
<path d="" fill="#000102" transform="translate(0,0)"/>
<path d="" fill="#000102" transform="translate(0,0)"/>
<path d="" fill="#000102" transform="translate(0,0)"/>
<path d="" fill="#000102" transform="translate(0,0)"/>
<path d="" fill="#000102" transform="translate(0,0)"/>
<path d="" fill="#000102" transform="translate(0,0)"/>
<path d="" fill="#000102" transform="translate(0,0)"/>
<path d="" fill="#000102" transform="translate(0,0)"/>
<path d="" fill="#000102" transform="translate(0,0)"/>
<path d="" fill="#000102" transform="translate(0,0)"/>
<path d="" fill="#000102" transform="translate(0,0)"/>
<path d="" fill="#000102" transform="translate(0,0)"/>
<path d="" fill="#000102" transform="translate(0,0)"/>
<path d="" fill="#000102" transform="translate(0,0)"/>
<path d="" fill="#000102" transform="translate(0,0)"/>
<path d="" fill="#000102" transform="translate(0,0)"/>
<path d="" fill="#000102" transform="translate(0,0)"/>
<path d="" fill="#000102" transform="translate(0,0)"/>
<path d="" fill="#000102" transform="translate(0,0)"/>
<path d="" fill="#000102" transform="translate(0,0)"/>
<path d="" fill="#000102" transform="translate(0,0)"/>
<path d="" fill="#000102" transform="translate(0,0)"/>
<path d="" fill="#000102" transform="translate(0,0)"/>
<path d="" fill="#000102" transform="translate(0,0)"/>
<path d="" fill="#000102" transform="translate(0,0)"/>
<path d="" fill="#000102" transform="translate(0,0)"/>
<path d="" fill="#000102" transform="translate(0,0)"/>
<path d="" fill="#FAFBFC" transform="translate(0,0)"/>
<path d="" fill="#000102" transform="translate(0,0)"/>
<path d="" fill="#000102" transform="translate(0,0)"/>
<path d="" fill="#000102" transform="translate(0,0)"/>
<path d="" fill="#000102" transform="translate(0,0)"/>
<path d="" fill="#000102" transform="translate(0,0)"/>
<path d="" fill="#222324" transform="translate(0,0)"/>
<path d="" fill="#000102" transform="translate(0,0)"/>
<path d="" fill="#000102" transform="translate(0,0)"/>
<path d="" fill="#000102" transform="translate(0,0)"/>
<path d="" fill="#000102" transform="translate(0,0)"/>
<path d="" fill="#000102" transform="translate(0,0)"/>
<path d="" fill="#000102" transform="translate(0,0)"/>
<path d="" fill="#000102" transform="translate(0,0)"/>
<path d="" fill="#000102" transform="translate(0,0)"/>
<path d="" fill="#000102" transform="translate(0,0)"/>
<path d="" fill="#000102" transform="translate(0,0)"/>
<path d="" fill="#000102" transform="translate(0,0)"/>
<path d="" fill="#222324" transform="translate(0,0)"/>
<path d="" fill="#000102" transform="translate(0,0)"/>
<path d="" fill="#000102" transform="translate(0,0)"/>
<path d="" fill="#222324" transform="translate(0,0)"/>
<path d="" fill="#000102" transform="translate(0,0)"/>
<path d="" fill="#000102" transform="translate(0,0)"/>
<path d="" fill="#000102" transform="translate(0,0)"/>
<path d="" fill="#000102" transform="translate(0,0)"/>
<path d="" fill="#222324" transform="translate(0,0)"/>
<path d="" fill="#000102" transform="translate(0,0)"/>
<path d="" fill="#000102" transform="translate(0,0)"/>
<path d="" fill="#000102" transform="translate(0,0)"/>
<path d="" fill="#000102" transform="translate(0,0)"/>
<path d="" fill="#000102" transform="translate(0,0)"/>
<path d="" fill="#000102" transform="translate(0,0)"/>
<path d="" fill="#000102" transform="translate(0,0)"/>
<path d="" fill="#000102" transform="translate(0,0)"/>
<path d="" fill="#000102" transform="translate(0,0)"/>
<path d="" fill="#000102" transform="translate(0,0)"/>
<path d="" fill="#000102" transform="translate(0,0)"/>
<path d="" fill="#000102" transform="translate(0,0)"/>
<path d="" fill="#000102" transform="translate(0,0)"/>
<path d="" fill="#000102" transform="translate(0,0)"/>
<path d="" fill="#000102" transform="translate(0,0)"/>
<path d="" fill="#000102" transform="translate(0,0)"/>
<path d="" fill="#000102" transform="translate(0,0)"/>
<path d="" fill="#000102" transform="translate(0,0)"/>
<path d="" fill="#000102" transform="translate(0,0)"/>
<path d="" fill="#000102" transform="translate(0,0)"/>
<path d="" fill="#000102" transform="translate(0,0)"/>
<path d="" fill="#000102" transform="translate(0,0)"/>
<path d="" fill="#000102" transform="translate(0,0)"/>
<path d="" fill="#000102" transform="translate(0,0)"/>
<path d="" fill="#000102" transform="translate(0,0)"/>
<path d="" fill="#000102" transform="translate(0,0)"/>
<path d="" fill="#000102" transform="translate(0,0)"/>
<path d="" fill="#000102" transform="translate(0,0)"/>
<path d="" fill="#000102" transform="translate(0,0)"/>
<path d="" fill="#000102" transform="translate(0,0)"/>
<path d="" fill="#000102" transform="translate(0,0)"/>
<path d="" fill="#000102" transform="translate(0,0)"/>
<path d="" fill="#000102" transform="translate(0,0)"/>
<path d="" fill="#000102" transform="translate(0,0)"/>
<path d="" fill="#000102" transform="translate(0,0)"/>
<path d="" fill="#000102" transform="translate(0,0)"/>
<path d="" fill="#000102" transform="translate(0,0)"/>
<path d="" fill="#000102" transform="translate(0,0)"/>
<path d="" fill="#000102" transform="translate(0,0)"/>
<path d="" fill="#000102" transform="translate(0,0)"/>
<path d="" fill="#000102" transform="translate(0,0)"/>
<path d="" fill="#000102" transform="translate(0,0)"/>
<path d="" fill="#000102" transform="translate(0,0)"/>
<path d="" fill="#000102" transform="translate(0,0)"/>
<path d="" fill="#000102" transform="translate(0,0)"/>
<path d="" fill="#000102" transform="translate(0,0)"/>
<path d="" fill="#000102" transform="translate(0,0)"/>
<path d="" fill="#000102" transform="translate(0,0)"/>
<path d="" fill="#000102" transform="translate(0,0)"/>
<path d="" fill="#222324" transform="translate(0,0)"/>
<path d="" fill="#000102" transform="translate(0,0)"/>
<path d="" fill="#000102" transform="translate(0,0)"/>
<path d="" fill="#000102" transform="translate(0,0)"/>
<path d="" fill="#000102" transform="translate(0,0)"/>
<path d="" fill="#000102" transform="translate(0,0)"/>
<path d="" fill="#000102" transform="translate(0,0)"/>
<path d="" fill="#000102" transform="translate(0,0)"/>
<path d="" fill="#000102" transform="translate(0,0)"/>
<path d="" fill="#000102" transform="translate(0,0)"/>
<path d="" fill="#000102" transform="translate(0,0)"/>
<path d="" fill="#000102" transform="translate(0,0)"/>
<path d="" fill="#000102" transform="translate(0,0)"/>
<path d="" fill="#000102" transform="translate(0,0)"/>
<path d="" fill="#000102" transform="translate(0,0)"/>
<path d="" fill="#000102" transform="translate(0,0)"/>
<path d="" fill="#000102" transform="translate(0,0)"/>
<path d="" fill="#000102" transform="translate(0,0)"/>
<path d="" fill="#000102" transform="translate(0,0)"/>
<path d="" fill="#000102" transform="translate(0,0)"/>
<path d="" fill="#000102" transform="translate(0,0)"/>
<path d="" fill="#000102" transform="translate(0,0)"/>
<path d="" fill="#000102" transform="translate(0,0)"/>
<path d="" fill="#000102" transform="translate(0,0)"/>
<path d="" fill="#000102" transform="translate(0,0)"/>
<path d="" fill="#000102" transform="translate(0,0)"/>
<path d="" fill="#000102" transform="translate(0,0)"/>
<path d="" fill="#000102" transform="translate(0,0)"/>
<path d="" fill="#000102" transform="translate(0,0)"/>
<path d="" fill="#000102" transform="translate(0,0)"/>
<path d="" fill="#000102" transform="translate(0,0)"/>
<path d="" fill="#000102" transform="translate(0,0)"/>
<path d="" fill="#000102" transform="translate(0,0)"/>
<path d="" fill="#000102" transform="translate(0,0)"/>
<path d="" fill="#000102" transform="translate(0,0)"/>
<path d="" fill="#000102" transform="translate(0,0)"/>
<path d="" fill="#000102" transform="translate(0,0)"/>
<path d="" fill="#000102" transform="translate(0,0)"/>
<path d="" fill="#000102" transform="translate(0,0)"/>
<path d="" fill="#000102" transform="translate(0,0)"/>
<path d="" fill="#000102" transform="translate(0,0)"/>
<path d="" fill="#000102" transform="translate(0,0)"/>
<path d="" fill="#000102" transform="translate(0,0)"/>
<path d="" fill="#000102" transform="translate(0,0)"/>
<path d="" fill="#000102" transform="translate(0,0)"/>
<path d="" fill="#000102" transform="translate(0,0)"/>
<path d="" fill="#222324" transform="translate(0,0)"/>
<path d="" fill="#000102" transform="translate(0,0)"/>
<path d="" fill="#000102" transform="translate(0,0)"/>
<path d="" fill="#222324" transform="translate(0,0)"/>
<path d="" fill="#000102" transform="translate(0,0)"/>
<path d="" fill="#000102" transform="translate(0,0)"/>
<path d="" fill="#000102" transform="translate(0,0)"/>
<path d="" fill="#000102" transform="translate(0,0)"/>
<path d="" fill="#000102" transform="translate(0,0)"/>
<path d="" fill="#000102" transform="translate(0,0)"/>
<path d="" fill="#222324" transform="translate(0,0)"/>
<path d="" fill="#000102" transform="translate(0,0)"/>
<path d="" fill="#000102" transform="translate(0,0)"/>
<path d="" fill="#000102" transform="translate(0,0)"/>
<path d="" fill="#222324" transform="translate(0,0)"/>
<path d="" fill="#222324" transform="translate(0,0)"/>
<path d="" fill="#000102" transform="translate(0,0)"/>
<path d="" fill="#000102" transform="translate(0,0)"/>
<path d="" fill="#000102" transform="translate(0,0)"/>
<path d="" fill="#000102" transform="translate(0,0)"/>
<path d="" fill="#000102" transform="translate(0,0)"/>
<path d="" fill="#222324" transform="translate(0,0)"/>
</svg>
